<svg width="82" height="79" viewBox="0 0 82 79" fill="none" xmlns="http://www.w3.org/2000/svg">
<path d="M43.8554 46.3911C41.1238 45.1155 38.557 43.5133 36.2112 41.6196C38.8842 37.073 45.3668 27.9424 51.1125 26.8432C54.8707 31.8029 60.2277 35.311 66.2762 36.7732C66.5975 36.8561 66.9386 36.8078 67.2244 36.6392C67.5102 36.4705 67.7172 36.1953 67.8001 35.8739C67.8829 35.5526 67.8346 35.2115 67.666 34.9257C67.4973 34.64 67.2221 34.4329 66.9007 34.3501C61.2039 33.0072 56.1728 29.6767 52.7113 24.9571C52.6575 24.8568 52.5903 24.7644 52.5115 24.6823C50.7102 22.1651 49.4357 19.3102 48.7643 16.2886C48.7276 16.0858 48.6414 15.8953 48.5133 15.7339C48.3851 15.5725 48.2191 15.4454 48.0299 15.3638C47.8407 15.2822 47.6342 15.2486 47.4289 15.2661C47.2236 15.2837 47.0258 15.3517 46.8532 15.4642C43.3588 17.7638 40.0207 20.2924 36.8607 23.0335C30.0658 29.0415 27.5551 33.6256 29.1789 37.0356C32.0643 43.0935 39.6336 47.153 42.0693 48.2771V64.3901C42.0693 64.7214 42.2009 65.0391 42.4351 65.2733C42.6694 65.5076 42.9871 65.6392 43.3184 65.6392C43.6496 65.6392 43.9673 65.5076 44.2016 65.2733C44.4358 65.0391 44.5674 64.7214 44.5674 64.3901V47.5277C44.5691 47.2901 44.503 47.057 44.3769 46.8557C44.2508 46.6544 44.0699 46.4932 43.8554 46.3911ZM31.4647 35.9614C30.4405 33.813 33.7505 27.2179 46.7533 18.4744C47.4499 20.6168 48.4018 22.6676 49.5887 24.5824C42.8437 26.6933 36.5484 36.2112 34.3376 39.846C33.1806 38.714 32.2147 37.4022 31.4772 35.9614H31.4647ZM65.4768 46.5909C62.3561 46.5884 59.3048 47.5116 56.7089 49.2435C54.1129 50.9755 52.089 53.4384 50.893 56.3208C49.6971 59.2033 49.3829 62.3756 49.9902 65.4366C50.5975 68.4976 52.099 71.3098 54.3048 73.5173C56.5105 75.7248 59.3215 77.2285 62.382 77.8383C65.4425 78.448 68.6152 78.1363 71.4985 76.9426C74.3819 75.749 76.8464 73.727 78.5805 71.1324C80.3145 68.5378 81.24 65.4873 81.24 62.3666C81.2367 58.1858 79.5753 54.177 76.6202 51.2196C73.6651 48.2621 69.6576 46.5975 65.4768 46.5909ZM65.4768 75.6317C62.8497 75.6342 60.2809 74.8572 58.0955 73.3992C55.9101 71.9412 54.2063 69.8677 53.1998 67.441C52.1933 65.0143 51.9293 62.3436 52.4412 59.7669C52.9532 57.1901 54.218 54.8231 56.0756 52.9655C57.9333 51.1078 60.3003 49.843 62.877 49.3311C65.4538 48.8191 68.1245 49.0831 70.5512 50.0896C72.9778 51.0961 75.0514 52.7999 76.5094 54.9853C77.9674 57.1707 78.7443 59.7395 78.7419 62.3666C78.7353 65.8827 77.3356 69.2529 74.8493 71.7391C72.3631 74.2254 68.9929 75.6251 65.4768 75.6317ZM36.2861 62.3666C36.2696 64.7168 35.7281 67.0336 34.7013 69.1477C33.6746 71.2618 32.1884 73.1197 30.3514 74.5858C28.5145 76.0518 26.3732 77.0889 24.084 77.6212C21.7949 78.1536 19.4157 78.1677 17.1204 77.6626C14.825 77.1575 12.6716 76.1459 10.8173 74.7018C8.9631 73.2577 7.45496 71.4175 6.40314 69.3158C5.35132 67.214 4.78239 64.9038 4.73792 62.554C4.69346 60.2042 5.17459 57.8741 6.14615 55.7341C6.29857 55.4565 6.55072 55.2472 6.85158 55.1485C7.15245 55.0498 7.47958 55.069 7.7668 55.2023C8.05403 55.3356 8.27991 55.573 8.39875 55.8665C8.51759 56.16 8.52053 56.4877 8.40696 56.7833C7.36371 59.0261 6.96771 61.5158 7.26362 63.9716C7.55953 66.4274 8.53557 68.7517 10.0817 70.6825C11.6279 72.6134 13.6826 74.0739 16.0144 74.8995C18.3461 75.725 20.8621 75.8828 23.2788 75.355C25.6954 74.8273 27.9165 73.6349 29.6918 71.9124C31.4671 70.1899 32.7259 68.0058 33.3263 65.6061C33.9267 63.2065 33.8449 60.6869 33.0901 58.3313C32.3352 55.9757 30.9373 53.8778 29.054 52.2742H11.4297C11.0984 52.2742 10.7807 52.1426 10.5465 51.9083C10.3122 51.6741 10.1806 51.3564 10.1806 51.0251C10.1806 50.6938 10.3122 50.3761 10.5465 50.1419C10.7807 49.9076 11.0984 49.776 11.4297 49.776H29.5911H29.7535H30.0033C30.0867 49.809 30.1662 49.8509 30.2406 49.9009L30.378 49.9759L30.478 50.0633C32.3082 51.5459 33.7808 53.422 34.7864 55.552C35.7919 57.682 36.3045 60.0112 36.2861 62.3666ZM5.99626 38.7842H24.3076C24.6388 38.7842 24.9566 38.9158 25.1908 39.1501C25.425 39.3843 25.5566 39.702 25.5566 40.0333C25.5566 40.3646 25.425 40.6823 25.1908 40.9165C24.9566 41.1508 24.6388 41.2824 24.3076 41.2824H5.99626C5.66499 41.2824 5.34729 41.1508 5.11304 40.9165C4.8788 40.6823 4.7472 40.3646 4.7472 40.0333C4.7472 39.702 4.8788 39.3843 5.11304 39.1501C5.34729 38.9158 5.66499 38.7842 5.99626 38.7842ZM20.5604 31.2899H2.24907C1.91779 31.2899 1.60009 31.1583 1.36584 30.924C1.1316 30.6898 1 30.3721 1 30.0408C1 29.7095 1.1316 29.3918 1.36584 29.1576C1.60009 28.9233 1.91779 28.7917 2.24907 28.7917H20.5604C20.8916 28.7917 21.2094 28.9233 21.4436 29.1576C21.6778 29.3918 21.8094 29.7095 21.8094 30.0408C21.8094 30.3721 21.6778 30.6898 21.4436 30.924C21.2094 31.1583 20.8916 31.2899 20.5604 31.2899ZM55.7965 14.0153C57.0836 14.0153 58.3418 13.6336 59.412 12.9185C60.4822 12.2035 61.3163 11.1871 61.8088 9.998C62.3013 8.80888 62.4302 7.50042 62.1791 6.23806C61.928 4.9757 61.3082 3.81615 60.3981 2.90604C59.488 1.99594 58.3285 1.37614 57.0661 1.12504C55.8037 0.873946 54.4953 1.00282 53.3062 1.49537C52.1171 1.98792 51.1007 2.82201 50.3856 3.89219C49.6706 4.96236 49.2889 6.22055 49.2889 7.50764C49.2889 9.23357 49.9745 10.8888 51.1949 12.1092C52.4154 13.3296 54.0706 14.0153 55.7965 14.0153ZM55.7965 3.49814C56.5895 3.49814 57.3647 3.73329 58.0241 4.17386C58.6834 4.61443 59.1974 5.24063 59.5008 5.97327C59.8043 6.70591 59.8837 7.51208 59.729 8.28985C59.5743 9.06762 59.1924 9.78204 58.6317 10.3428C58.0709 10.9035 57.3565 11.2854 56.5787 11.4401C55.801 11.5948 54.9948 11.5154 54.2622 11.2119C53.5295 10.9085 52.9033 10.3946 52.4627 9.7352C52.0222 9.07584 51.787 8.30064 51.787 7.50764C51.787 6.44425 52.2095 5.42442 52.9614 4.67249C53.7133 3.92056 54.7331 3.49814 55.7965 3.49814ZM65.4768 58.7818C64.7678 58.7818 64.0747 58.992 63.4852 59.3859C62.8956 59.7799 62.4362 60.3397 62.1648 60.9948C61.8935 61.6498 61.8225 62.3706 61.9608 63.066C62.0992 63.7614 62.4406 64.4001 62.9419 64.9015C63.4433 65.4028 64.082 65.7442 64.7774 65.8826C65.4728 66.0209 66.1936 65.9499 66.8486 65.6786C67.5037 65.4072 68.0636 64.9478 68.4575 64.3582C68.8514 63.7687 69.0616 63.0756 69.0616 62.3666C69.0616 61.8958 68.9689 61.4297 68.7887 60.9948C68.6086 60.5598 68.3445 60.1646 68.0116 59.8318C67.6788 59.4989 67.2836 59.2348 66.8486 59.0547C66.4137 58.8745 65.9476 58.7818 65.4768 58.7818ZM65.4768 63.4408C65.2619 63.4408 65.0518 63.3771 64.8731 63.2577C64.6944 63.1383 64.5551 62.9685 64.4728 62.77C64.3906 62.5714 64.369 62.3529 64.411 62.1421C64.4529 61.9313 64.5564 61.7377 64.7084 61.5857C64.8604 61.4337 65.054 61.3302 65.2648 61.2883C65.4756 61.2464 65.6941 61.2679 65.8926 61.3502C66.0912 61.4324 66.2609 61.5717 66.3803 61.7504C66.4997 61.9291 66.5635 62.1392 66.5635 62.3541C66.5635 62.6423 66.449 62.9187 66.2452 63.1225C66.0414 63.3263 65.765 63.4408 65.4768 63.4408ZM24.0827 62.3541C24.0827 61.6451 23.8725 60.952 23.4786 60.3625C23.0847 59.773 22.5248 59.3135 21.8698 59.0422C21.2147 58.7708 20.4939 58.6999 19.7986 58.8382C19.1032 58.9765 18.4644 59.3179 17.9631 59.8193C17.4617 60.3206 17.1203 60.9594 16.982 61.6548C16.8437 62.3501 16.9147 63.0709 17.186 63.726C17.4573 64.381 17.9168 64.9409 18.5063 65.3348C19.0958 65.7287 19.7889 65.9389 20.4979 65.9389C21.4465 65.9389 22.3564 65.563 23.0284 64.8934C23.7003 64.2238 24.0794 63.3152 24.0827 62.3666V62.3541ZM19.4237 62.3541C19.4237 62.1392 19.4875 61.9291 19.6069 61.7504C19.7263 61.5717 19.896 61.4324 20.0946 61.3502C20.2931 61.2679 20.5116 61.2464 20.7224 61.2883C20.9332 61.3302 21.1268 61.4337 21.2788 61.5857C21.4308 61.7377 21.5343 61.9313 21.5762 62.1421C21.6181 62.3529 21.5966 62.5714 21.5144 62.77C21.4321 62.9685 21.2928 63.1383 21.1141 63.2577C20.9354 63.3771 20.7253 63.4408 20.5104 63.4408C20.2244 63.4408 19.9498 63.328 19.7464 63.1269C19.543 62.9258 19.427 62.6526 19.4237 62.3666V62.3541Z" fill="#005496" stroke="#005496" stroke-width="1.5"/>
</svg>
