<svg width="75" height="80" viewBox="0 0 75 80" fill="none" xmlns="http://www.w3.org/2000/svg">
<path d="M1.33333 36H4.16133L9.344 76.1707C9.38549 76.4921 9.54264 76.7875 9.78607 77.0014C10.0295 77.2154 10.3426 77.3334 10.6667 77.3333H42.0533C42.801 78.1714 43.7172 78.8421 44.7419 79.3016C45.7667 79.7612 46.8769 79.9992 48 80H50.088C51.5523 79.9987 52.9964 79.6578 54.3067 79.004C55.2471 78.5365 56.2831 78.2933 57.3333 78.2933C58.3836 78.2933 59.4195 78.5365 60.36 79.004C61.6703 79.6578 63.1143 79.9987 64.5787 80H66.6667C68.7877 79.9979 70.8213 79.1544 72.3212 77.6545C73.821 76.1547 74.6645 74.1211 74.6667 72V64C74.6645 61.8789 73.821 59.8453 72.3212 58.3455C70.8213 56.8457 68.7877 56.0021 66.6667 56H64.5787C63.1143 56.0013 61.6703 56.3422 60.36 56.996C59.4195 57.4635 58.3836 57.7067 57.3333 57.7067C56.2831 57.7067 55.2471 57.4635 54.3067 56.996C53.5462 56.6228 52.7389 56.3537 51.9067 56.196L54.5053 36H57.3333C57.687 36 58.0261 35.8595 58.2761 35.6095C58.5262 35.3594 58.6667 35.0203 58.6667 34.6667V29.3333C58.6667 28.9797 58.5262 28.6406 58.2761 28.3905C58.0261 28.1405 57.687 28 57.3333 28H52V24C51.9999 23.6464 51.8594 23.3073 51.6093 23.0573L45.3333 16.7813V12.64L47.3547 11.024L50.8067 17.9293L53.1933 16.7373L49.484 9.32L51.1333 8H56C56.3536 8 56.6928 7.85952 56.9428 7.60948C57.1929 7.35943 57.3333 7.02029 57.3333 6.66667V1.33333C57.3333 0.979711 57.1929 0.640573 56.9428 0.390524C56.6928 0.140476 56.3536 0 56 0H42.6667C39.4853 0.00388127 36.4353 1.26941 34.1857 3.51901C31.9361 5.7686 30.6705 8.81859 30.6667 12C30.6667 12.3536 30.8071 12.6928 31.0572 12.9428C31.3072 13.1929 31.6464 13.3333 32 13.3333H34.6667V16.7813L31.0573 20.3907C30.8073 20.6407 30.6667 20.9797 30.6667 21.3333V28H28V17.3333C27.9979 17.1682 27.9649 17.0049 27.9027 16.852C27.8783 16.8001 27.8507 16.7498 27.82 16.7013C27.7879 16.6314 27.7505 16.5641 27.708 16.5L22.6667 10.2V1.33333C22.6667 0.979711 22.5262 0.640573 22.2761 0.390524C22.0261 0.140476 21.687 0 21.3333 0H13.3333C12.9797 0 12.6406 0.140476 12.3905 0.390524C12.1405 0.640573 12 0.979711 12 1.33333V10.2L6.95867 16.5C6.91618 16.5641 6.87874 16.6314 6.84667 16.7013C6.81601 16.7498 6.7884 16.8001 6.764 16.852C6.70173 17.0049 6.66872 17.1682 6.66667 17.3333V28H1.33333C0.979711 28 0.640573 28.1405 0.390525 28.3905C0.140476 28.6406 0 28.9797 0 29.3333V34.6667C0 35.0203 0.140476 35.3594 0.390525 35.6095C0.640573 35.8595 0.979711 36 1.33333 36ZM66.6667 77.3333H64.5787C63.5286 77.3319 62.4931 77.0873 61.5533 76.6187C60.242 75.9671 58.7976 75.6281 57.3333 75.6281C55.8691 75.6281 54.4247 75.9671 53.1133 76.6187C52.1736 77.0873 51.1381 77.3319 50.088 77.3333H48C46.5855 77.3333 45.229 76.7714 44.2288 75.7712C43.2286 74.771 42.6667 73.4145 42.6667 72V69.9467C44.1289 71.2678 46.0293 71.9995 48 72H50.088C51.5523 71.9987 52.9964 71.6578 54.3067 71.004C55.2471 70.5365 56.2831 70.2933 57.3333 70.2933C58.3836 70.2933 59.4195 70.5365 60.36 71.004C61.6703 71.6578 63.1143 71.9987 64.5787 72H66.6667C68.6373 71.9995 70.5378 71.2678 72 69.9467V72C72 73.4145 71.4381 74.771 70.4379 75.7712C69.4377 76.7714 68.0812 77.3333 66.6667 77.3333ZM61.5533 59.3813C62.4931 58.9127 63.5286 58.6681 64.5787 58.6667H66.6667C68.0812 58.6667 69.4377 59.2286 70.4379 60.2288C71.4381 61.229 72 62.5855 72 64C72 65.4145 71.4381 66.771 70.4379 67.7712C69.4377 68.7714 68.0812 69.3333 66.6667 69.3333H64.5787C63.5286 69.3319 62.4931 69.0873 61.5533 68.6187C60.242 67.9671 58.7976 67.6281 57.3333 67.6281C55.8691 67.6281 54.4247 67.9671 53.1133 68.6187C52.1736 69.0873 51.1381 69.3319 50.088 69.3333H48C46.5855 69.3333 45.229 68.7714 44.2288 67.7712C43.2286 66.771 42.6667 65.4145 42.6667 64C42.6667 62.5855 43.2286 61.229 44.2288 60.2288C45.229 59.2286 46.5855 58.6667 48 58.6667H50.088C51.1381 58.6681 52.1736 58.9127 53.1133 59.3813C54.4248 60.0325 55.8691 60.3713 57.3333 60.3713C58.7975 60.3713 60.2419 60.0325 61.5533 59.3813ZM49.236 56H48C45.8789 56.0021 43.8453 56.8457 42.3455 58.3455C40.8456 59.8453 40.0021 61.8789 40 64V72C40.0023 72.909 40.1601 73.8109 40.4667 74.6667H11.8387L6.84933 36H13.3333V60C13.3333 61.4145 13.8952 62.771 14.8954 63.7712C15.8956 64.7714 17.2522 65.3333 18.6667 65.3333H32C33.4145 65.3333 34.771 64.7714 35.7712 63.7712C36.7714 62.771 37.3333 61.4145 37.3333 60V48.824L40.816 50.5653C41.3186 50.8134 41.8653 50.9596 42.4246 50.9955C42.984 51.0313 43.5449 50.9562 44.0751 50.7744C44.6052 50.5926 45.0942 50.3077 45.5138 49.9361C45.9334 49.5645 46.2754 49.1136 46.52 48.6093C46.7757 48.1024 46.9289 47.5499 46.9708 46.9837C47.0127 46.4174 46.9424 45.8484 46.764 45.3093C46.5881 44.7702 46.3065 44.2715 45.9356 43.8425C45.5647 43.4135 45.112 43.0627 44.604 42.8107L37.3333 39.176V36H51.8173L49.236 56ZM32 30.6667H34.6667V40C34.6653 40.2489 34.7337 40.4932 34.864 40.7053C34.9943 40.9174 35.1813 41.0887 35.404 41.2L43.404 45.2C43.5971 45.2952 43.7692 45.4281 43.91 45.591C44.0508 45.7538 44.1576 45.9432 44.224 46.148C44.2924 46.3678 44.3159 46.5992 44.293 46.8282C44.2701 47.0573 44.2013 47.2794 44.0907 47.4813C43.9993 47.6647 43.8726 47.8282 43.718 47.9625C43.5633 48.0968 43.3837 48.1993 43.1893 48.264C42.995 48.3288 42.7898 48.3546 42.5855 48.34C42.3812 48.3253 42.1818 48.2705 41.9987 48.1787L36.5853 45.472C36.3823 45.3728 36.1574 45.3268 35.9317 45.3384C35.7061 45.35 35.4871 45.4187 35.2952 45.5381C35.1034 45.6576 34.9451 45.8238 34.8352 46.0212C34.7252 46.2186 34.6672 46.4407 34.6667 46.6667V60C34.6667 60.7072 34.3857 61.3855 33.8856 61.8856C33.3855 62.3857 32.7072 62.6667 32 62.6667V50.6667H29.3333V62.6667H26.6667V50.6667H24V62.6667H21.3333V50.6667H18.6667V62.6667C17.9594 62.6667 17.2811 62.3857 16.781 61.8856C16.281 61.3855 16 60.7072 16 60V30.6667H32ZM56 33.3333H37.3333V30.6667H56V33.3333ZM54.6667 5.33333H52V2.66667H54.6667V5.33333ZM42.6667 2.66667H49.3333V6.02667L43.532 10.6667H33.428C33.7515 8.44643 34.8628 6.41663 36.559 4.94789C38.2551 3.47915 40.423 2.66946 42.6667 2.66667ZM42.6667 13.3333V16H37.3333V13.3333H42.6667ZM33.3333 21.8853L36.552 18.6667H43.448L49.3333 24.552V28H33.3333V21.8853ZM13.9733 12H20.6933L23.8933 16H10.7733L13.9733 12ZM14.6667 2.66667H20V9.33333H14.6667V2.66667ZM9.33333 18.6667H25.3333V28H9.33333V18.6667ZM2.66667 30.6667H13.3333V33.3333H2.66667V30.6667Z" fill="#005496"/>
<path d="M67.9999 61.3334H65.3333V64H67.9999V61.3334Z" fill="#005496"/>
<path d="M54.6669 61.3334H52.0002V64H54.6669V61.3334Z" fill="#005496"/>
<path d="M49.3334 62.6667H46.6667V65.3334H49.3334V62.6667Z" fill="#005496"/>
<path d="M62.6664 62.6667H59.9998V65.3334H62.6664V62.6667Z" fill="#005496"/>
</svg>
