<svg width="80" height="80" viewBox="0 0 80 80" fill="none" xmlns="http://www.w3.org/2000/svg">
<g clip-path="url(#clip0_505_95)">
<path d="M78.4375 54.1448C79.3005 54.1448 80 53.4453 80 52.5823V39.9611C80 39.0981 79.3005 38.3986 78.4375 38.3986H70.3889V27.3398C70.3889 26.4768 69.6894 25.7773 68.8264 25.7773H60.9906C61.6866 24.164 61.8072 21.9681 60.4222 19.0623L58.7712 15.5965L62.56 13.7982L63.4167 15.5945C63.9064 16.6212 64.9336 17.2228 66.0017 17.2228C66.4111 17.2228 66.8266 17.1343 67.2198 16.9475L72.4028 14.4873C72.4047 14.4864 72.4067 14.4857 72.4087 14.485C72.4108 14.484 72.4125 14.4828 72.4145 14.4818L75.9819 12.7886C77.5255 12.0539 78.6914 10.7584 79.265 9.14059C79.8367 7.52778 79.748 5.7934 79.0148 4.25715C77.4964 1.07481 73.665 -0.285818 70.4727 1.22496L61.712 5.3834C61.0238 5.71012 60.5041 6.28621 60.2486 7.00574C59.9931 7.72512 60.033 8.49965 60.3606 9.18668L61.2147 10.9776L57.4272 12.7753L55.7758 9.3084C53.6106 4.76934 50.4753 4.16418 48.2253 4.45606C43.6814 5.04543 39.1275 9.82918 36.4669 13.1515H17.7905C16.9275 13.1515 16.228 13.8511 16.228 14.714C16.228 15.577 16.9275 16.2765 17.7905 16.2765H19.2175V25.7772H11.1691H3.125V16.2765H3.75484C4.61781 16.2765 5.31734 15.577 5.31734 14.714C5.31734 13.8511 4.61781 13.1515 3.75484 13.1515H1.5625C0.699531 13.1515 0 13.8511 0 14.714V27.3397C0 28.2026 0.699531 28.9022 1.5625 28.9022H9.60656V38.3984H1.5625C0.699531 38.3984 0 39.0979 0 39.9609V52.5822C0 53.4451 0.699531 54.1447 1.5625 54.1447H9.60656V63.6409H1.5625C0.699531 63.6409 0 64.3404 0 65.2034V77.829C0 78.692 0.699531 79.3915 1.5625 79.3915H78.4375C79.3005 79.3915 80 78.692 80 77.829V65.2034C80 64.3404 79.3005 63.6409 78.4375 63.6409H70.3889V54.1447H78.4375V54.1448ZM71.8113 4.04887C73.4495 3.2734 75.4158 3.9709 76.1947 5.60293C76.568 6.38528 76.6123 7.2709 76.3197 8.09637C76.0253 8.92668 75.4284 9.5909 74.6405 9.96606L72.4752 10.9939L69.6523 5.07356L71.8113 4.04887ZM66.8294 6.41371L69.6522 12.334L66.123 14.0093L64.7109 11.0487C64.7108 11.0484 64.7108 11.0482 64.7106 11.0479C64.7105 11.0476 64.7103 11.0475 64.7102 11.0472L63.2994 8.08918L66.8294 6.41371ZM76.875 51.0198H60.778V41.5236H76.875V51.0198ZM41.5603 51.0198V41.5236H57.653V51.0198H41.5603ZM38.4353 66.7661V76.2667H22.3427V66.7661H38.4353ZM41.5603 66.7661H57.653V76.2667H41.5603V66.7661ZM31.9536 63.6411V54.1448H48.0463V63.6411H31.9536ZM38.4353 41.5236V51.0198H22.3427V41.5236H38.4353ZM31.9536 38.3987V29.6648C35.0961 30.694 39.7077 31.4332 44.1947 31.5692C44.6472 31.5828 45.1395 31.5915 45.6623 31.5915C46.4044 31.5915 47.2084 31.5737 48.0463 31.5289V38.3989H31.9536V38.3987ZM67.2639 28.9023V38.3986H51.1714V31.2304C53.7283 30.8673 56.3034 30.1729 58.2427 28.9022H67.2639V28.9023ZM38.2886 15.8931C42.0114 11.029 45.8764 7.91199 48.6273 7.55528C49.7794 7.40574 51.4816 7.56449 52.9548 10.6532L54.6041 14.1153L50.9627 15.8436C50.1831 16.2136 49.8511 17.1456 50.2211 17.9251C50.4884 18.4884 51.0491 18.8179 51.6337 18.8179C51.8583 18.8179 52.0864 18.7692 52.3027 18.6667L55.948 16.9365L57.6009 20.4067C59.0689 23.4865 58.1273 24.8998 57.2914 25.695C55.2855 27.6029 50.4242 28.6311 44.2891 28.4454C39.2234 28.2921 34.7236 27.3973 32.2428 26.4584C33.0773 23.9487 35.2169 19.9065 38.2886 15.8931V15.8931ZM22.3427 16.2767H34.1566C31.842 19.6614 29.9884 23.195 29.1819 25.7773H22.3427V16.2767ZM12.7316 28.9023H28.8286V38.3986H12.7316V28.9023ZM3.125 41.5236H19.2177V51.0198H3.125V41.5236ZM12.7316 54.1448H28.8286V63.6411H12.7316V54.1448ZM3.125 66.7661H19.2177V76.2667H3.125V66.7661ZM76.875 76.2667H60.778V66.7661H76.875V76.2667ZM67.2639 63.6411H51.1714V54.1448H67.2641V63.6411H67.2639Z" fill="#005496"/>
<path d="M10.7749 16.2766H10.7793C11.6422 16.2766 12.3396 15.5771 12.3396 14.7141C12.3396 13.8511 11.6379 13.1516 10.7749 13.1516C9.91193 13.1516 9.2124 13.8511 9.2124 14.7141C9.2124 15.5771 9.91209 16.2766 10.7749 16.2766V16.2766Z" fill="#005496"/>
</g>
<defs>
<clipPath id="clip0_505_95">
<rect width="80" height="80" fill="white"/>
</clipPath>
</defs>
</svg>
