<svg width="82" height="82" viewBox="0 0 82 82" fill="none" xmlns="http://www.w3.org/2000/svg">
<path d="M79.6531 71.252H76.9531L74.6161 60.569C74.5551 60.292 74.4261 60.036 74.2391 59.823L71.0491 56.176L67.7911 48.732C67.4741 48.007 66.6951 47.593 65.9221 47.757L57.5201 49.437C57.1451 49.511 56.8081 49.711 56.5631 50.003L52.3221 55.051L50.7871 53.024C50.4931 52.637 50.0471 52.395 49.5621 52.361C49.0831 52.336 48.6021 52.505 48.2581 52.85L45.0421 56.066L32.2561 43.282C32.6721 42.154 32.6761 40.928 32.2531 39.789C31.8121 38.6 30.9601 37.642 29.8421 37.066L20.8341 29.681V22.552V22.516C20.8341 20.598 19.9771 18.842 18.6391 17.604C19.8521 16.749 20.8671 15.507 21.4861 13.972C21.5921 13.708 21.6811 13.444 21.7591 13.178L22.9361 13.653C23.1421 13.735 23.3551 13.774 23.5641 13.774C24.2291 13.774 24.8591 13.377 25.1231 12.722C25.4701 11.862 25.0541 10.882 24.1931 10.534L23.2801 10.166L22.8871 9.24095C24.2171 5.47595 23.4071 2.96995 20.4741 1.78495L18.9161 1.15595C17.2521 0.484953 15.4251 0.500953 13.7711 1.20295C12.1181 1.90495 10.8381 3.20995 10.1671 4.87595L9.53806 6.43395C9.37106 6.84795 9.37506 7.31095 9.54906 7.72095C9.55906 7.74595 9.57606 7.76795 9.58806 7.79195C9.37306 8.15695 9.17806 8.53795 9.01606 8.93995C9.01606 8.93995 9.01606 8.93995 9.01506 8.93995C8.30806 10.693 8.24206 12.527 8.69406 14.141C5.04506 14.448 1.27706 19.154 1.27706 22.509V44.361L1.28006 51.19L2.22706 65.892L1.32506 71.603C0.926063 71.91 0.664062 72.387 0.664062 72.931C0.664062 73.287 0.776063 73.616 0.964063 73.887L0.690063 75.647C0.451063 78.194 2.08506 80.569 4.49206 81.173C5.98706 81.549 7.55806 81.26 8.79606 80.384C9.10006 80.168 9.37606 79.923 9.62106 79.655C10.3491 78.86 10.8051 77.86 10.9001 76.825L11.2001 74.613H15.2511L15.2661 75.307C15.0171 76.525 15.2321 77.7739 15.8781 78.851C16.0521 79.141 16.2531 79.409 16.4751 79.655C17.1571 80.406 18.0521 80.9389 19.0711 81.186C19.4841 81.2859 19.8971 81.333 20.3051 81.333C21.7771 81.333 23.1661 80.704 24.1301 79.654C24.6711 79.065 25.0801 78.345 25.2911 77.525C25.3221 77.402 25.3411 77.274 25.3431 77.148C25.3641 76.244 25.3831 75.402 25.3971 74.613H40.1401L39.7411 75.727C39.5561 76.242 39.6341 76.814 39.9491 77.262C40.2641 77.709 40.7761 77.974 41.3231 77.974H76.3351C76.8441 77.974 77.3251 77.745 77.6431 77.347C77.9631 76.952 78.0851 76.431 77.9761 75.934L77.6871 74.613H79.6511H79.6521C80.5801 74.613 81.3321 73.861 81.3321 72.932C81.3331 72.004 80.5811 71.252 79.6531 71.252ZM43.7101 74.613L44.3121 72.932L44.9131 71.252L45.7731 68.847L46.4621 69.369C47.7211 70.583 49.3731 71.252 51.1271 71.252C52.9231 71.252 54.6111 70.5529 55.8801 69.283C57.1501 68.015 57.8501 66.326 57.8501 64.53C57.8501 62.775 57.1821 61.123 55.9661 59.864L54.4031 57.801L58.7571 52.618L65.2551 51.318L67.7531 57.027L63.6391 59.769C63.3281 59.976 63.0951 60.281 62.9771 60.636L61.2961 65.678C61.0021 66.559 61.4791 67.511 62.3591 67.803C62.5351 67.862 62.7151 67.89 62.8911 67.89C63.5951 67.89 64.2511 67.445 64.4851 66.741L65.9831 62.246L69.7171 59.757L71.4251 61.709L73.5121 71.251L73.8801 72.931L74.2471 74.612H43.7101V74.613ZM22.0331 74.613C22.0201 75.358 22.0061 76.106 21.9891 76.842C21.6901 77.663 20.7651 78.137 19.8651 77.92C19.3931 77.805 19.0011 77.521 18.7611 77.12C18.5371 76.748 18.4731 76.313 18.5801 75.896C18.6181 75.746 18.6361 75.594 18.6321 75.44L18.6141 74.613L18.5771 72.932L18.5401 71.252L18.4201 65.825C18.4181 65.697 18.4011 65.57 18.3681 65.446L15.0171 52.348C14.8271 51.604 14.1571 51.084 13.3891 51.084H10.8771C9.94906 51.084 9.19606 51.836 9.19606 52.765V64.416L8.26806 71.253L8.04006 72.933L7.81206 74.614L7.56406 76.442C7.51906 76.925 7.26806 77.35 6.85606 77.64C6.41206 77.955 5.86206 78.054 5.31106 77.914C4.50006 77.711 3.95206 76.872 4.02506 76.068L4.25506 74.614L4.52106 72.933L4.78706 71.253L5.58106 66.236C5.60006 66.113 5.60606 65.99 5.59906 65.865L4.64406 51.084V46.044H18.5251L21.8271 64.112C21.8471 64.217 21.8771 64.32 21.9151 64.421C22.0481 65.14 22.0931 67.9259 22.0741 71.253C22.0711 71.8009 22.0661 72.362 22.0591 72.933C22.0501 73.487 22.0421 74.049 22.0331 74.613ZM11.6571 71.252L12.5401 64.754C12.5501 64.679 12.5551 64.603 12.5551 64.528V56.292L15.0631 66.091L15.1771 71.251H11.6571V71.252ZM4.64106 22.511C4.64106 20.709 7.18006 17.745 8.84906 17.492L13.5801 19.068C13.7521 19.125 13.9311 19.155 14.1121 19.155C15.8991 19.155 17.4661 20.72 17.4731 22.506L17.4651 22.854L17.3041 30.302C17.2991 30.569 17.3601 30.829 17.4731 31.065C17.5781 31.283 17.7281 31.48 17.9201 31.638L19.1541 32.65L20.8351 34.028L27.8631 39.79C27.9741 39.882 28.0971 39.957 28.2281 40.018C28.6361 40.206 28.9471 40.54 29.1031 40.96C29.1101 40.979 29.1121 40.999 29.1181 41.018C29.2531 41.424 29.2331 41.856 29.0551 42.245C28.8681 42.654 28.5331 42.964 28.1131 43.121C27.9761 43.172 27.8341 43.197 27.6931 43.212C27.4411 43.237 27.1861 43.211 26.9461 43.123L20.8351 38.848L19.1541 37.673L17.4741 36.497L13.3111 33.585C13.2461 33.539 13.1771 33.497 13.1051 33.462C11.7341 32.769 11.0071 31.24 11.3411 29.717L12.3991 24.534C12.4451 24.307 12.4441 24.081 12.4011 23.868C12.2721 23.226 11.7711 22.691 11.0891 22.551C10.1721 22.361 9.29106 22.952 9.10506 23.861L8.05306 29.021C7.40406 31.977 8.80906 34.993 11.4761 36.403L17.4741 40.598V42.683H4.64106V22.511ZM18.0651 4.43995L18.0951 4.45195L19.2181 4.90495C19.6081 5.06195 20.0231 5.23495 20.1361 5.83295C20.2211 6.28195 20.1371 6.96995 19.7361 8.08095C19.6721 8.25995 19.6001 8.44795 19.5191 8.64995L13.5531 6.24395L13.2851 6.13595C13.6211 5.30195 14.2611 4.65095 15.0861 4.29995C15.4831 4.13195 15.9001 4.04395 16.3181 4.03395C16.7711 4.02195 17.2251 4.10195 17.6591 4.27695L18.0651 4.43995ZM18.3691 12.715C17.5021 14.862 15.4011 16.045 13.6801 15.352C11.9611 14.66 11.2681 12.347 12.1351 10.199C12.2421 9.93495 12.3681 9.68395 12.5111 9.44795L18.6201 11.913C18.5601 12.18 18.4771 12.449 18.3691 12.715ZM25.1161 63.427L21.5771 44.062C21.4911 43.592 21.2121 43.202 20.8331 42.957V42.95L25.1631 45.979C25.2461 46.037 25.3351 46.087 25.4261 46.13C26.0951 46.437 26.8081 46.591 27.5231 46.591C28.1151 46.591 28.7111 46.484 29.2821 46.271C29.5681 46.165 29.8401 46.032 30.0981 45.879L42.6641 58.445L39.4471 61.662C39.1031 62.005 38.9251 62.4809 38.9591 62.965C38.9921 63.451 39.2341 63.897 39.6211 64.189L42.9641 66.721L41.3431 71.253H25.4401C25.4761 65.908 25.2971 64.132 25.1161 63.427ZM51.2381 59.188L53.3521 61.979C53.3991 62.041 53.4501 62.098 53.5041 62.153C54.1391 62.788 54.4891 63.631 54.4891 64.53C54.4891 65.428 54.1401 66.271 53.5041 66.906C52.2331 68.177 50.0211 68.177 48.7521 66.906C48.6971 66.852 48.6391 66.8019 48.5781 66.755L46.9611 65.53L45.5571 64.466L44.1531 63.402L43.1891 62.673L45.0431 60.819L45.0961 60.766L46.2311 59.631L47.4191 58.443L49.2721 56.59L50.1311 57.724L51.2381 59.188Z" fill="#005496"/>
</svg>
