<svg width="80" height="80" viewBox="0 0 80 80" fill="none" xmlns="http://www.w3.org/2000/svg">
<path d="M1.33319 69.3345H6.66594V66.6681H2.66638V58.6689H25.3306V56.0026H13.3319V53.3362H66.6594V56.0026H43.9952V58.6689H77.3249V66.6681H45.3284V69.3345H78.6581C79.0117 69.3345 79.3508 69.194 79.6008 68.944C79.8508 68.694 79.9913 68.3549 79.9913 68.0013V41.3375C79.9913 40.9839 79.8508 40.6448 79.6008 40.3948C79.3508 40.1448 79.0117 40.0043 78.6581 40.0043H77.9382C78.8505 38.9926 79.4885 37.7642 79.7914 36.436C80.0943 35.1078 80.052 33.7242 79.6685 32.417C79.285 31.1098 78.573 29.9226 77.6006 28.9686C76.6281 28.0146 75.4276 27.3255 74.1133 26.9671C74.4671 25.979 74.6514 24.9382 74.6585 23.8887V10.6742C74.6634 8.58744 74.055 6.54527 72.9091 4.80133C71.7632 3.05739 70.1301 1.68854 68.2129 0.864824C66.2956 0.0411033 64.1785 -0.201191 62.1247 0.16804C60.0709 0.53727 58.1708 1.50175 56.6605 2.94168C55.149 1.50489 53.2492 0.543166 51.1965 0.175676C49.1437 -0.191815 47.0282 0.0510836 45.1122 0.874272C43.1962 1.69746 41.5638 3.06476 40.4173 4.80673C39.2708 6.5487 38.6607 8.58878 38.6625 10.6742V18.8066C38.2237 18.7175 37.777 18.6729 37.3293 18.6733H26.6638C24.8965 18.6754 23.2022 19.3784 21.9526 20.628C20.7029 21.8777 19.9999 23.572 19.9978 25.3392C20.0027 26.7864 20.4834 28.1917 21.3657 29.3388H19.9978C19.5495 29.3436 19.1029 29.3936 18.6646 29.4881V28.0056C18.6646 27.652 18.5242 27.3129 18.2742 27.0629C18.0241 26.8129 17.685 26.6724 17.3314 26.6724H17.2968C18.1791 25.5254 18.6597 24.12 18.6646 22.6729V20.0065C18.6646 19.6529 18.5242 19.3138 18.2742 19.0638C18.0241 18.8138 17.685 18.6733 17.3314 18.6733H17.2968C18.1791 17.5262 18.6597 16.1209 18.6646 14.6737V6.67461H15.9983V10.6742H14.6651C14.2289 10.6757 13.7939 10.7203 13.3665 10.8075C13.6715 9.31099 13.5207 7.7574 12.9334 6.34756C12.3461 4.93772 11.3494 3.73645 10.0722 2.89902C9.85315 2.75285 9.59569 2.67485 9.33232 2.67485C9.06895 2.67485 8.81148 2.75285 8.5924 2.89902C7.31519 3.73645 6.31853 4.93772 5.73125 6.34756C5.14398 7.7574 4.99309 9.31099 5.29809 10.8075C4.87071 10.7203 4.43575 10.6757 3.99956 10.6742H2.66638V6.67461H0V14.6737C0.00490189 16.1209 0.485538 17.5262 1.36785 18.6733H1.33319C0.979605 18.6733 0.640503 18.8138 0.390482 19.0638C0.14046 19.3138 0 19.6529 0 20.0065V22.6729C0.00490189 24.12 0.485538 25.5254 1.36785 26.6724H1.33319C0.979605 26.6724 0.640503 26.8129 0.390482 27.0629C0.14046 27.3129 0 27.652 0 28.0056V30.672C0.00211691 32.4393 0.705099 34.1335 1.95475 35.3832C3.20439 36.6328 4.89867 37.3358 6.66594 37.3379H7.99913V40.0043H1.33319C0.979605 40.0043 0.640503 40.1448 0.390482 40.3948C0.14046 40.6448 0 40.9839 0 41.3375V68.0013C0 68.3549 0.14046 68.694 0.390482 68.944C0.640503 69.194 0.979605 69.3345 1.33319 69.3345ZM10.6655 56.0026H2.66638V53.3362H10.6655V56.0026ZM69.3258 56.0026V53.3362H77.3249V56.0026H69.3258ZM77.3249 34.6716C77.3249 36.0859 76.7631 37.4423 75.763 38.4424C74.7629 39.4425 73.4065 40.0043 71.9922 40.0043C70.6271 40.0015 69.3167 39.468 68.3379 38.5165C68.9859 37.3386 69.3258 36.016 69.3258 34.6716C69.3258 33.3272 68.9859 32.0046 68.3379 30.8266C69.3167 29.8752 70.6271 29.3416 71.9922 29.3388C73.4065 29.3388 74.7629 29.9007 75.763 30.9007C76.7631 31.9008 77.3249 33.2572 77.3249 34.6716ZM29.3301 36.0047C29.3301 34.944 29.7515 33.9267 30.5016 33.1766C31.2516 32.4266 32.269 32.0052 33.3297 32.0052V34.6716H35.9961V32.0052H43.9952C45.056 32.0052 46.0733 32.4266 46.8233 33.1766C47.5734 33.9267 47.9948 34.944 47.9948 36.0047C47.9948 37.0655 47.5734 38.0828 46.8233 38.8329C46.0733 39.5829 45.056 40.0043 43.9952 40.0043H33.3297C32.269 40.0043 31.2516 39.5829 30.5016 38.8329C29.7515 38.0828 29.3301 37.0655 29.3301 36.0047ZM50.6612 25.8912L53.3275 23.2248V23.8914C53.3227 25.7236 53.8608 27.5162 54.874 29.0428C54.762 29.1348 54.654 29.2322 54.5354 29.3161L50.6612 32.0812V25.8912ZM53.3275 19.4546L50.6612 22.1209V16.5589L53.3275 13.8925V19.4546ZM50.6612 35.3582L53.4435 33.3704C53.2381 34.5506 53.3059 35.7623 53.6417 36.9123C53.9775 38.0623 54.5724 39.12 55.3806 40.0043H50.6612V35.3582ZM55.9939 34.6716C55.9939 33.6168 56.3067 32.5858 56.8926 31.7088C57.4786 30.8319 58.3115 30.1484 59.2859 29.7447C60.2603 29.3411 61.3326 29.2355 62.367 29.4413C63.4015 29.647 64.3517 30.1549 65.0975 30.9007C65.8433 31.6465 66.3512 32.5967 66.5569 33.6312C66.7627 34.6656 66.6571 35.7379 66.2535 36.7123C65.8499 37.6867 65.1663 38.5196 64.2894 39.1056C63.4124 39.6916 62.3814 40.0043 61.3267 40.0043C59.9123 40.0043 58.5559 39.4425 57.5558 38.4424C56.5557 37.4423 55.9939 36.0859 55.9939 34.6716ZM63.993 2.67505C66.1139 2.67716 68.1473 3.52061 69.6469 5.02028C71.1466 6.51994 71.99 8.55332 71.9922 10.6742V23.8887C71.9894 24.8639 71.7723 25.8265 71.3562 26.7084C69.6107 26.8411 67.9587 27.5497 66.6594 28.7229C66.2489 28.3559 65.8022 28.0317 65.3262 27.755V25.8885L70.2683 20.9464L68.3832 19.0613L65.3262 22.1209V16.5589L70.2683 11.6167L68.3832 9.73161L65.3262 12.7886V6.67461H62.6598V12.7886L59.6028 9.73161L57.7177 11.6167L62.6598 16.5589V22.1209L59.6028 19.0639L57.7177 20.9491L62.6598 25.8912V26.7924C60.8043 26.4633 58.8923 26.816 57.2764 27.7856C56.4458 26.6559 55.9965 25.291 55.9939 23.8887V10.6742C55.996 8.55332 56.8395 6.51994 58.3391 5.02028C59.8388 3.52061 61.8722 2.67716 63.993 2.67505ZM41.3288 10.6742C41.3289 9.09335 41.7974 7.54799 42.6751 6.23322C43.5528 4.91845 44.8004 3.89322 46.2603 3.28699C47.7203 2.68075 49.3272 2.52069 50.878 2.82702C52.4289 3.13335 53.8542 3.89233 54.974 5.00812C54.0091 6.53691 53.4523 8.28759 53.3569 10.0929L50.6612 12.7886V6.67461H47.9948V12.7886L44.9378 9.73161L43.0526 11.6167L47.9948 16.5589V22.1209L44.9378 19.0639L43.0526 20.9491L47.9948 25.8912V30.7067C46.8963 29.8691 45.5627 29.3972 44.1819 29.3575L44.1205 29.3135C43.778 29.0674 43.4597 28.7893 43.17 28.4829C43.9435 27.0929 44.1833 25.4684 43.8443 23.9142C43.5054 22.36 42.6109 20.9828 41.3288 20.0412V10.6742ZM22.6642 25.3392C22.6642 24.2785 23.0856 23.2612 23.8356 22.5111C24.5857 21.7611 25.603 21.3397 26.6638 21.3397V24.0061H29.3301V21.3397H37.3293C38.39 21.3397 39.4073 21.7611 40.1574 22.5111C40.9075 23.2612 41.3288 24.2785 41.3288 25.3392C41.3288 26.4 40.9075 27.4173 40.1574 28.1674C39.4073 28.9174 38.39 29.3388 37.3293 29.3388H26.6638C25.603 29.3388 24.5857 28.9174 23.8356 28.1674C23.0856 27.4173 22.6642 26.4 22.6642 25.3392ZM26.6638 32.0052H28.0316C27.1451 33.15 26.6641 34.5569 26.6641 36.0047C26.6641 37.4526 27.1451 38.8595 28.0316 40.0043H19.9978C18.9371 40.0043 17.9198 39.5829 17.1697 38.8329C16.4196 38.0828 15.9983 37.0655 15.9983 36.0047H15.9569C17.1665 35.1057 18.0348 33.8224 18.4193 32.3651C18.9153 32.1384 19.4526 32.0159 19.9978 32.0052H26.6638ZM9.33232 21.3397H9.36698C9.35498 21.3543 9.34298 21.3663 9.33232 21.381C9.32165 21.3663 9.30965 21.3543 9.29765 21.3397H9.33232ZM10.6655 26.6724V25.3392C10.6655 24.2785 11.0869 23.2612 11.837 22.5111C12.587 21.7611 13.6043 21.3397 14.6651 21.3397H15.9983V22.6729C15.9983 23.7336 15.5769 24.7509 14.8268 25.501C14.0767 26.2511 13.0594 26.6724 11.9987 26.6724H10.6655ZM2.66638 21.3397H3.99956C5.06032 21.3397 6.07762 21.7611 6.82768 22.5111C7.57775 23.2612 7.99913 24.2785 7.99913 25.3392V26.6724H6.66594C5.60519 26.6724 4.58789 26.2511 3.83782 25.501C3.08776 24.7509 2.66638 23.7336 2.66638 22.6729V21.3397ZM9.33232 29.3388H9.36698C9.35498 29.3535 9.34298 29.3655 9.33232 29.3801C9.32165 29.3655 9.30965 29.3535 9.29765 29.3388H9.33232ZM10.6655 33.3384C10.6655 32.2776 11.0869 31.2603 11.837 30.5103C12.587 29.7602 13.6043 29.3388 14.6651 29.3388H15.9983V30.672C15.9983 31.7327 15.5769 32.7501 14.8268 33.5001C14.0767 34.2502 13.0594 34.6716 11.9987 34.6716H10.6655V33.3384ZM15.9983 13.3406V14.6737C15.9983 15.7345 15.5769 16.7518 14.8268 17.5019C14.0767 18.2519 13.0594 18.6733 11.9987 18.6733H10.6655V17.3401C10.6655 16.2794 11.0869 15.2621 11.837 14.512C12.587 13.7619 13.6043 13.3406 14.6651 13.3406H15.9983ZM9.33232 5.71205C9.8141 6.18566 10.1967 6.75047 10.4579 7.37352C10.7192 7.99657 10.8537 8.6654 10.8537 9.34099C10.8537 10.0166 10.7192 10.6854 10.4579 11.3085C10.1967 11.9315 9.8141 12.4963 9.33232 12.9699C8.85054 12.4963 8.46789 11.9315 8.20668 11.3085C7.94548 10.6854 7.81096 10.0166 7.81096 9.34099C7.81096 8.6654 7.94548 7.99657 8.20668 7.37352C8.46789 6.75047 8.85054 6.18566 9.33232 5.71205ZM7.99913 17.3401V18.6733H6.66594C5.60519 18.6733 4.58789 18.2519 3.83782 17.5019C3.08776 16.7518 2.66638 15.7345 2.66638 14.6737V13.3406H3.99956C5.06032 13.3406 6.07762 13.7619 6.82768 14.512C7.57775 15.2621 7.99913 16.2794 7.99913 17.3401ZM2.66638 30.672V29.3388H3.99956C5.06032 29.3388 6.07762 29.7602 6.82768 30.5103C7.57775 31.2603 7.99913 32.2776 7.99913 33.3384V34.6716H6.66594C5.60519 34.6716 4.58789 34.2502 3.83782 33.5001C3.08776 32.7501 2.66638 31.7327 2.66638 30.672ZM10.6655 37.3379H11.9987C12.4869 37.3348 12.9734 37.278 13.4492 37.1686C13.6354 38.1996 14.064 39.1716 14.6997 40.0043H10.6655V37.3379ZM2.66638 42.6707H77.3249V50.6698H2.66638V42.6707Z" fill="#005496"/>
<path d="M74.6586 61.3352H71.9922V64.0016H74.6586V61.3352Z" fill="#005496"/>
<path d="M7.99914 61.3352H5.33276V64.0016H7.99914V61.3352Z" fill="#005496"/>
<path d="M7.99914 45.3369H5.33276V48.0033H7.99914V45.3369Z" fill="#005496"/>
<path d="M74.6586 45.3369H71.9922V48.0033H74.6586V45.3369Z" fill="#005496"/>
<path d="M21.3309 34.6714H18.6646V37.3378H21.3309V34.6714Z" fill="#005496"/>
<path d="M42.662 34.6714H39.9956V37.3378H42.662V34.6714Z" fill="#005496"/>
<path d="M35.996 24.0059H33.3296V26.6722H35.996V24.0059Z" fill="#005496"/>
<path d="M61.3265 32.0051H58.6602V34.6715H61.3265V32.0051Z" fill="#005496"/>
<path d="M15.9982 80C17.3908 79.9979 18.7588 79.6322 19.9667 78.9391C21.1747 78.2461 22.1807 77.2496 22.8854 76.0484C22.9734 76.2884 23.0401 76.5337 23.136 76.771C23.5141 77.725 24.1705 78.5431 25.0198 79.119C25.8691 79.6948 26.8721 80.0018 27.8982 80H28.4315C29.2288 79.9991 30.0151 79.8133 30.7286 79.4574L31.9964 78.8241L33.1403 79.3961C33.9325 79.7912 34.8054 79.9979 35.6907 80H36.0906C37.1151 80.0031 38.1169 79.6979 38.9655 79.1239C39.8141 78.5499 40.4704 77.7337 40.8488 76.7817C42.0495 73.7946 42.665 70.6047 42.6619 67.3854C42.6597 66.1758 42.2949 64.9946 41.6144 63.9946C40.934 62.9945 39.9693 62.2215 38.845 61.7753C39.6274 61.0311 40.2504 60.1356 40.6762 59.1433C41.102 58.1509 41.3217 57.0824 41.3221 56.0026C41.3221 55.649 41.1816 55.3099 40.9316 55.0599C40.6816 54.8099 40.3425 54.6694 39.9889 54.6694H38.6624C37.3251 54.6704 36.0095 55.0069 34.8361 55.6481C33.6626 56.2893 32.6688 57.2148 31.9458 58.3397C31.1564 56.9582 30.0575 55.7786 28.7354 54.8934L27.2503 57.1118C28.1243 57.6952 28.8683 58.4531 29.4354 59.3377C30.0026 60.2224 30.3806 61.2148 30.5459 62.2526C29.5951 61.6556 28.4956 61.3378 27.3729 61.3354C25.9802 61.3373 24.6306 61.8191 23.5515 62.6996C22.4724 63.5801 21.7296 64.8055 21.4482 66.1695C20.4962 65.2756 19.3399 64.6284 18.0801 64.2844C16.8203 63.9403 15.4955 63.91 14.2213 64.1959C12.9471 64.4818 11.7623 65.0754 10.7703 65.9247C9.77834 66.774 9.00939 67.8533 8.53062 69.0683C8.05185 70.2832 7.87781 71.5969 8.02372 72.8946C8.16962 74.1923 8.63102 75.4346 9.36762 76.5129C10.1042 77.5912 11.0936 78.4728 12.2494 79.0807C13.4052 79.6885 14.6923 80.0042 15.9982 80ZM38.4864 57.3358C38.1968 58.452 37.554 59.4446 36.6539 60.1654C35.7538 60.8863 34.6448 61.2967 33.4923 61.3354C33.7816 60.2191 34.4244 59.2263 35.3245 58.5055C36.2246 57.7846 37.3338 57.3743 38.4864 57.3358ZM27.3729 64.0018C27.8162 64.0008 28.2553 64.0876 28.6649 64.2571C29.0745 64.4267 29.4464 64.6756 29.7593 64.9896L31.0472 66.2775C31.2972 66.5274 31.6362 66.6678 31.9898 66.6678C32.3433 66.6678 32.6823 66.5274 32.9323 66.2775L34.2215 64.9896C34.5346 64.6748 34.9072 64.4253 35.3175 64.2557C35.7279 64.0861 36.1679 63.9998 36.6119 64.0018C37.5091 64.0025 38.3693 64.3592 39.0037 64.9936C39.6381 65.628 39.9948 66.4882 39.9955 67.3854C39.9969 70.2631 39.4461 73.1143 38.3731 75.7845C38.1919 76.2421 37.8771 76.6346 37.4698 76.9109C37.0625 77.1872 36.5815 77.3345 36.0893 77.3336H35.6894C35.2158 77.3337 34.7488 77.2233 34.3255 77.011L32.5844 76.1404C32.399 76.0483 32.1948 76.0004 31.9878 76.0004C31.7807 76.0004 31.5765 76.0483 31.3911 76.1404L29.5247 77.0737C29.1824 77.2469 28.8045 77.3382 28.4208 77.3403H27.8875C27.3935 77.3416 26.9106 77.1941 26.5016 76.9171C26.0926 76.6401 25.7765 76.2463 25.5944 75.7871C24.5292 73.1146 23.987 70.2624 23.9973 67.3854C23.998 66.4896 24.3536 65.6306 24.9863 64.9964C25.619 64.3622 26.4771 64.0046 27.3729 64.0018ZM15.9982 66.6681C17.0529 66.6681 18.0839 66.9809 18.9609 67.5669C19.8378 68.1528 20.5214 68.9857 20.925 69.9601C21.3286 70.9346 21.4342 72.0068 21.2284 73.0412C21.0227 74.0757 20.5148 75.0259 19.769 75.7717C19.0232 76.5175 18.073 77.0254 17.0385 77.2312C16.0041 77.4369 14.9318 77.3313 13.9574 76.9277C12.983 76.5241 12.1501 75.8406 11.5641 74.9636C10.9782 74.0866 10.6654 73.0556 10.6654 72.0009C10.6654 70.5865 11.2273 69.2301 12.2273 68.2301C13.2274 67.23 14.5838 66.6681 15.9982 66.6681Z" fill="#005496"/>
</svg>
