<svg width="82" height="80" viewBox="0 0 82 80" fill="none" xmlns="http://www.w3.org/2000/svg">
<path d="M71.3044 4.25113C70.8591 4.25113 70.4141 4.08122 70.0746 3.74156C69.8997 3.56678 69.5984 3.47809 69.179 3.47809C68.2656 3.47809 67.195 3.90556 66.8593 4.07026C65.9995 4.49217 64.9569 4.14104 64.5317 3.28278C64.1063 2.42435 64.4524 1.38504 65.3092 0.956695C65.5049 0.858609 67.2772 0 69.1788 0C70.535 0 71.6953 0.443478 72.5341 1.28261C73.2132 1.96174 73.2132 3.06296 72.5339 3.74209C72.1944 4.08139 71.7494 4.25113 71.3044 4.25113Z" fill="#005496"/>
<path d="M76.5205 4.25148C76.2607 4.25148 75.997 4.19322 75.7487 4.06974C75.4121 3.90487 74.3426 3.47826 73.4301 3.47826C73.0106 3.47826 72.7092 3.56696 72.5344 3.74174C71.8555 4.42104 70.7541 4.42104 70.0749 3.74191C69.3956 3.06278 69.3956 1.96157 70.0748 1.28243C70.9135 0.443304 72.0739 0 73.4301 0C75.3318 0 77.104 0.858783 77.2998 0.956696C78.1588 1.38626 78.5069 2.43096 78.0775 3.29009C77.7727 3.89913 77.1584 4.25148 76.5205 4.25148Z" fill="#005496"/>
<path d="M67.8261 10.4347C67.3809 10.4347 66.9358 10.2648 66.5963 9.92516C66.4214 9.75038 66.1202 9.66168 65.7007 9.66168C64.7873 9.66168 63.7167 10.0892 63.381 10.2539C62.5212 10.6759 61.4786 10.3246 61.0534 9.46638C60.628 8.60794 60.9741 7.56864 61.831 7.14029C62.0268 7.04238 63.7989 6.18359 65.7007 6.18359C67.0569 6.18359 68.2172 6.62707 69.056 7.4662C69.7351 8.14533 69.7351 9.24655 69.0558 9.92568C68.7162 10.265 68.2711 10.4347 67.8261 10.4347Z" fill="#005496"/>
<path d="M73.042 10.4352C72.7822 10.4352 72.5185 10.3769 72.2702 10.2534C71.9336 10.0884 70.8641 9.66178 69.9515 9.66178C69.5321 9.66178 69.2307 9.75048 69.0559 9.92526C68.3769 10.6046 67.2755 10.6046 66.5964 9.92544C65.9171 9.24631 65.9171 8.14509 66.5962 7.46596C67.435 6.62683 68.5954 6.18335 69.9515 6.18335C71.8533 6.18335 73.6255 7.04213 73.8213 7.14005C74.6802 7.56961 75.0284 8.61431 74.599 9.47344C74.2942 10.0828 73.6799 10.4352 73.042 10.4352Z" fill="#005496"/>
<path d="M10.435 13.913C6.59921 13.913 3.47852 10.7923 3.47852 6.95652C3.47852 3.1207 6.59921 0 10.435 0C14.2709 0 17.3916 3.1207 17.3916 6.95652C17.3916 10.7923 14.2709 13.913 10.435 13.913ZM10.435 3.47826C8.51712 3.47826 6.95678 5.03861 6.95678 6.95652C6.95678 8.87443 8.51712 10.4348 10.435 10.4348C12.353 10.4348 13.9133 8.87443 13.9133 6.95652C13.9133 5.03861 12.353 3.47826 10.435 3.47826Z" fill="#005496"/>
<path d="M15.6523 73.0434C9.89857 73.0434 5.21753 68.3623 5.21753 62.6086C5.21753 56.8549 9.89857 52.1738 15.6523 52.1738C21.406 52.1738 26.0871 56.8549 26.0871 62.6086C26.0871 68.3623 21.406 73.0434 15.6523 73.0434ZM15.6523 55.6521C11.8165 55.6521 8.69579 58.7728 8.69579 62.6086C8.69579 66.4444 11.8165 69.5651 15.6523 69.5651C19.4881 69.5651 22.6088 66.4444 22.6088 62.6086C22.6088 58.7728 19.4881 55.6521 15.6523 55.6521Z" fill="#005496"/>
<path d="M15.6522 80.0001C14.6917 80.0001 13.9131 79.2213 13.9131 78.2609V66.087C13.9131 65.1267 14.6917 64.3479 15.6522 64.3479C16.6127 64.3479 17.3913 65.1267 17.3913 66.087V78.2609C17.3913 79.2213 16.6127 80.0001 15.6522 80.0001Z" fill="#005496"/>
<path d="M22.6088 50.4348H1.7392C1.02564 50.4348 0.384419 49.9989 0.121984 49.3355C-0.140451 48.672 0.0289406 47.9153 0.549462 47.4271L23.1582 26.2224C23.4486 25.9501 23.8237 25.7856 24.2208 25.7565L30.1597 25.3216C31.118 25.2485 31.951 25.9709 32.0213 26.929C32.0915 27.8869 31.3719 28.7203 30.4138 28.7906L25.0886 29.1807L6.13572 46.9565H21.8448L39.1109 28.1534L39.0865 28.1551C38.1281 28.2269 37.2952 27.5057 37.2249 26.5476C37.1547 25.5897 37.8743 24.7563 38.8324 24.6861L43.2319 24.3638C43.942 24.3116 44.6138 24.6989 44.9244 25.341C45.2349 25.9829 45.1222 26.7494 44.6397 27.2746L23.8898 49.872C23.5604 50.2306 23.0957 50.4348 22.6088 50.4348Z" fill="#005496"/>
<path d="M80.0002 50.4348H56.9218C55.9615 50.4348 55.1827 49.656 55.1827 48.6957C55.1827 47.7353 55.9615 46.9565 56.9218 46.9565H76.6599L66.6922 32.7169L46.6668 24.4143L44.7827 27.0979C44.739 27.16 44.6915 27.2191 44.6402 27.275L26.567 46.9565H30.442C32.1952 44.7623 34.8359 43.4783 37.6813 43.4783C40.5268 43.4783 43.1674 44.7623 44.9206 46.9565H48.226C49.1863 46.9565 49.9651 47.7353 49.9651 48.6957C49.9651 49.656 49.1863 50.4348 48.226 50.4348H44.0302C43.4375 50.4348 42.8855 50.1329 42.5656 49.6337C41.4921 47.9574 39.6662 46.9565 37.6815 46.9565C35.6968 46.9565 33.8707 47.9574 32.7969 49.6339C32.4773 50.1329 31.9253 50.4348 31.3326 50.4348H22.6089C21.919 50.4348 21.2942 50.0268 21.0168 49.3951C20.7394 48.7635 20.8613 48.0275 21.3281 47.5193L42.0013 25.0059L44.6213 21.2741C45.0896 20.6073 45.958 20.355 46.7108 20.6668L68.4926 29.6976C68.7983 29.8244 69.0615 30.0357 69.2512 30.3066L81.4251 47.6979C81.7971 48.2292 81.8423 48.9231 81.543 49.4984C81.2432 50.0741 80.6488 50.4348 80.0002 50.4348Z" fill="#005496"/>
<path d="M37.6815 62.0291C32.5669 62.0291 28.406 57.868 28.406 52.7536C28.406 50.9783 28.9116 49.2504 29.8681 47.7574C31.5846 45.0779 34.5055 43.4783 37.6815 43.4783C40.8577 43.4783 43.7785 45.0779 45.4949 47.7576C46.4512 49.2504 46.9568 50.9783 46.9568 52.7536C46.9568 57.868 42.7959 62.0291 37.6815 62.0291ZM37.6815 46.9565C35.6968 46.9565 33.8707 47.9574 32.797 49.6339C32.1999 50.5657 31.8843 51.6447 31.8843 52.7536C31.8843 55.9503 34.485 58.5508 37.6815 58.5508C40.878 58.5508 43.4785 55.9503 43.4785 52.7536C43.4785 51.6445 43.163 50.5657 42.566 49.6339C41.4921 47.9574 39.6662 46.9565 37.6815 46.9565Z" fill="#005496"/>
<path d="M37.6815 69.5652C36.721 69.5652 35.9424 68.7864 35.9424 67.8261V55.7682C35.9424 54.8078 36.721 54.0291 37.6815 54.0291C38.642 54.0291 39.4206 54.8078 39.4206 55.7682V67.8261C39.4206 68.7864 38.642 69.5652 37.6815 69.5652Z" fill="#005496"/>
<path d="M49.2753 72.4639C44.1609 72.4639 40 68.3028 40 63.1884C40 61.4131 40.5056 59.6853 41.4621 58.1922C43.1783 55.5127 46.0991 53.9131 49.2753 53.9131C52.4517 53.9131 55.3725 55.5127 57.0889 58.1924C58.0452 59.6858 58.5508 61.4134 58.5508 63.1884C58.5508 68.3028 54.3897 72.4639 49.2753 72.4639ZM49.2753 57.3913C47.2906 57.3913 45.4647 58.3922 44.391 60.0686C43.7937 61.0006 43.4783 62.0795 43.4783 63.1884C43.4783 66.3851 46.0788 68.9856 49.2753 68.9856C52.472 68.9856 55.0725 66.3851 55.0725 63.1884C55.0725 62.0795 54.757 61.0007 54.1598 60.0686C53.0861 58.3922 51.2602 57.3913 49.2753 57.3913Z" fill="#005496"/>
<path d="M49.2753 80C48.3149 80 47.5361 79.2213 47.5361 78.2609V66.203C47.5361 65.2426 48.3149 64.4639 49.2753 64.4639C50.2356 64.4639 51.0144 65.2426 51.0144 66.203V78.2609C51.0144 79.2213 50.2356 80 49.2753 80Z" fill="#005496"/>
</svg>
