<svg width="8" height="12" viewBox="0 0 8 12" fill="none" xmlns="http://www.w3.org/2000/svg">
<path fill-rule="evenodd" clip-rule="evenodd" d="M3.9743 0C1.78533 0 0 1.81367 0 4.03738C0 4.66822 0.251844 5.39194 0.593385 6.18224C0.934927 6.97255 1.37479 7.81192 1.82155 8.59346C2.71508 10.1583 3.61551 11.4673 3.61551 11.4673L3.9743 12L4.33309 11.4673C4.33309 11.4673 5.23352 10.1583 6.12705 8.59346C6.57381 7.81192 7.01367 6.97255 7.35521 6.18224C7.69676 5.39194 7.9486 4.66822 7.9486 4.03738C7.9486 1.81367 6.16327 0 3.9743 0ZM3.97424 0.897171C5.68712 0.897171 7.06536 2.29729 7.06536 4.03736C7.06536 4.39659 6.87562 5.07649 6.55477 5.81773C6.23393 6.55897 5.79062 7.38082 5.3542 8.14483C4.67977 9.32764 4.25336 9.9684 3.99562 10.3557L3.97424 10.3878L3.95286 10.3557L3.95285 10.3557C3.69511 9.96838 3.2687 9.32763 2.59427 8.14483C2.15786 7.38082 1.71455 6.55897 1.3937 5.81773C1.07286 5.07649 0.883118 4.39659 0.883118 4.03736C0.883118 2.29729 2.26136 0.897171 3.97424 0.897171ZM3.09119 4.03736C3.09119 3.54145 3.4862 3.14017 3.97436 3.14017C4.46253 3.14017 4.85754 3.54145 4.85754 4.03736C4.85754 4.53327 4.46253 4.93456 3.97436 4.93456C3.4862 4.93456 3.09119 4.53327 3.09119 4.03736Z" fill="#005496"/>
</svg>
