<svg width="82" height="82" viewBox="0 0 82 82" fill="none" xmlns="http://www.w3.org/2000/svg">
<path d="M48.3655 64.5735C46.9472 64.1936 45.4361 64.3927 44.1646 65.127C42.8931 65.8612 41.9654 67.0705 41.5855 68.4887C41.2056 69.907 41.4047 71.4181 42.1389 72.6896C42.8732 73.9611 44.0824 74.8888 45.5007 75.2687C46.2025 75.458 46.9348 75.5065 47.6555 75.4115C48.3761 75.3165 49.0708 75.0798 49.6996 74.7151C50.6474 74.1676 51.4117 73.3514 51.8958 72.3697C52.3798 71.3879 52.562 70.2847 52.4192 69.1994C52.2764 68.1142 51.8151 67.0956 51.0936 66.2725C50.372 65.4494 49.4227 64.8586 48.3655 64.5749V64.5735ZM49.611 70.638C49.4474 71.259 49.0734 71.8039 48.5529 72.18C48.0324 72.556 47.3976 72.7399 46.7566 72.7003C46.1157 72.6607 45.5084 72.4 45.0381 71.9627C44.5679 71.5254 44.2639 70.9385 44.178 70.3021C44.092 69.6658 44.2295 69.0193 44.5669 68.4729C44.9042 67.9265 45.4207 67.5141 46.0281 67.3059C46.6356 67.0977 47.2965 67.1066 47.8981 67.3311C48.4997 67.5556 49.0048 67.9819 49.3273 68.5372C49.5107 68.8514 49.6299 69.1989 49.6779 69.5595C49.7258 69.9202 49.7017 70.2868 49.6069 70.638H49.611Z" fill="#005496"/>
<path d="M81.4473 5.92443C81.1766 5.45062 80.8143 5.03534 80.3817 4.70273C79.9491 4.37011 79.4546 4.12679 78.9271 3.9869L68.2334 1.12489C66.4608 0.652436 64.5732 0.902122 62.9845 1.81921C61.3957 2.73629 60.2355 4.24593 59.758 6.01716L58.3243 11.3647L30.2522 3.84159C29.8978 3.7469 29.5203 3.79676 29.2027 3.98023C28.8851 4.1637 28.6533 4.46576 28.5582 4.82004L23.1844 24.8735L16.5013 23.0827C16.3257 23.0356 16.1426 23.0235 15.9623 23.0472C15.7821 23.0709 15.6083 23.1299 15.4509 23.2207C15.2935 23.3116 15.1555 23.4326 15.0448 23.5768C14.9341 23.721 14.853 23.8855 14.8059 24.0611L6.56725 54.807L5.23035 54.4485C4.7033 54.3073 4.15359 54.2713 3.61261 54.3425C3.07164 54.4138 2.54999 54.5909 2.07745 54.8637C1.60491 55.1365 1.19074 55.4997 0.858578 55.9326C0.526418 56.3655 0.282775 56.8596 0.141561 57.3867C0.000346303 57.9137 -0.035674 58.4634 0.0355562 59.0044C0.106786 59.5454 0.283872 60.067 0.556702 60.5396C0.829533 61.0121 1.19276 61.4263 1.62566 61.7584C2.05855 62.0906 2.55263 62.3342 3.07969 62.4755L35.9513 71.2774C36.173 73.0935 36.8413 74.8263 37.8965 76.321C38.9517 77.8156 40.3608 79.0255 41.9978 79.8424C43.6349 80.6593 45.4489 81.0577 47.2776 81.0022C49.1063 80.9466 50.8928 80.4387 52.4772 79.5239C54.0617 78.6091 55.3947 77.3159 56.3572 75.7599C57.3196 74.204 57.8815 72.4338 57.9925 70.6076C58.1036 68.7814 57.7603 66.9561 56.9934 65.295C56.2266 63.6339 55.06 62.1888 53.5981 61.0887L67.4154 9.50333L76.7723 12.0097C77.5659 12.2226 78.4047 12.1952 79.1827 11.9311C79.9607 11.667 80.6429 11.178 81.1428 10.526C81.6428 9.87407 81.9381 9.08841 81.9913 8.26853C82.0445 7.44866 81.8533 6.63142 81.4418 5.92028L81.4473 5.92443ZM37.1719 31.4874L34.6158 41.0201L33.0284 39.2209C32.8986 39.0731 32.7387 38.9547 32.5595 38.8736C32.3802 38.7924 32.1858 38.7504 31.989 38.7504C31.8384 38.7502 31.6887 38.775 31.5462 38.8237L29.2668 39.5946L31.823 30.0605L37.1719 31.4874ZM42.9043 10.097L45.5781 10.8139L43.9353 16.9435L43.6488 16.448C43.4654 16.1302 43.1632 15.8982 42.8088 15.8031C42.6332 15.756 42.45 15.744 42.2698 15.7678C42.0896 15.7915 41.9158 15.8505 41.7584 15.9415L41.2601 16.228L42.9043 10.097ZM30.8791 6.87383L40.236 9.38155L37.7283 18.7398C37.6574 19.0042 37.6665 19.2838 37.7544 19.543C37.8424 19.8023 38.0053 20.0296 38.2225 20.1963C38.4396 20.3629 38.7014 20.4614 38.9746 20.4793C39.2477 20.4972 39.5201 20.4337 39.7572 20.2968L41.9493 19.0305L43.2143 21.2226C43.3357 21.433 43.5104 21.6077 43.7208 21.7292C43.9312 21.8507 44.1699 21.9146 44.4128 21.9146C44.4734 21.9145 44.534 21.9104 44.5941 21.9022C44.8654 21.8663 45.12 21.7508 45.3257 21.5702C45.5314 21.3896 45.679 21.1521 45.7497 20.8877L48.256 11.5308L57.6143 14.0385L52.5933 32.7523L25.8568 25.589L30.8791 6.87383ZM17.1268 26.1108L29.1575 29.334L25.9329 41.3661C25.8681 41.6079 25.8702 41.8629 25.9389 42.1037C26.0076 42.3445 26.1404 42.5621 26.3231 42.7334C26.5057 42.9047 26.7314 43.0232 26.9761 43.0764C27.2209 43.1295 27.4754 43.1152 27.7126 43.0351L31.5669 41.7314L34.2518 44.7872C34.417 44.9753 34.6302 45.1151 34.8687 45.1916C35.1071 45.2682 35.3618 45.2786 35.6057 45.2218C35.8495 45.165 36.0734 45.0431 36.2535 44.869C36.4335 44.695 36.563 44.4754 36.6281 44.2336L39.8513 32.2029L51.8834 35.4261L45.5767 58.9408C44.1063 59.1265 42.6879 59.6039 41.4045 60.3451C40.1212 61.0864 38.9988 62.0765 38.1033 63.2574L9.24104 55.528L17.1268 26.1108ZM2.81812 58.1008C2.86517 57.9251 2.94639 57.7603 3.05716 57.616C3.16792 57.4717 3.30604 57.3507 3.46363 57.2598C3.62122 57.1689 3.79518 57.11 3.97556 57.0864C4.15593 57.0628 4.33919 57.075 4.51485 57.1223L36.6917 65.7443C36.5134 66.1717 36.3623 66.6099 36.2392 67.0563C36.1231 67.5044 36.0348 67.9592 35.9748 68.4182L3.79796 59.7961C3.62226 59.7492 3.45753 59.6682 3.31318 59.5575C3.16883 59.4469 3.04769 59.309 2.95669 59.1515C2.86569 58.9941 2.80662 58.8202 2.78284 58.6399C2.75906 58.4597 2.77105 58.2764 2.81812 58.1008ZM54.9599 72.0704C54.5341 73.656 53.6478 75.0799 52.413 76.1619C51.1783 77.244 49.6504 77.9358 48.0226 78.1498C46.3948 78.3638 44.7401 78.0904 43.2676 77.3643C41.7951 76.6381 40.5709 75.4917 39.7498 74.07C38.9286 72.6483 38.5474 71.0151 38.6542 69.3768C38.7609 67.7384 39.351 66.1685 40.3498 64.8655C41.3486 63.5624 42.7112 62.5846 44.2655 62.0558C45.8198 61.5269 47.496 61.4707 49.0822 61.8942C51.2108 62.4648 53.0256 63.8572 54.1278 65.7655C55.23 67.6737 55.5293 69.9416 54.9599 72.0704ZM79.1901 8.35742C79.1432 8.53312 79.0621 8.69786 78.9515 8.84221C78.8409 8.98656 78.7029 9.10769 78.5455 9.19869C78.388 9.28969 78.2142 9.34877 78.0339 9.37254C77.8536 9.39632 77.6704 9.38433 77.4948 9.33726L68.1365 6.82954C67.4275 6.63974 66.6722 6.73926 66.0367 7.10623C65.4011 7.4732 64.9373 8.07757 64.7472 8.78645L51.1111 59.6799C50.2573 59.3169 49.3568 59.0756 48.4359 58.963L62.4332 6.73405C62.5742 6.2072 62.8176 5.71329 63.1496 5.28054C63.4815 4.8478 63.8955 4.48469 64.3678 4.21197C64.8401 3.93925 65.3615 3.76226 65.9023 3.69111C66.443 3.61996 66.9925 3.65604 67.5192 3.7973L78.2103 6.66346C78.5645 6.75851 78.8666 6.99031 79.0501 7.30794C79.2335 7.62557 79.2834 8.00304 79.1887 8.35742H79.1901Z" fill="#005496"/>
</svg>
