<svg width="64" height="80" viewBox="0 0 64 80" fill="none" xmlns="http://www.w3.org/2000/svg">
<path d="M1.08305 59.7661L31.746 79.7637C31.8032 79.7745 31.862 79.7745 31.9193 79.7637H32.0259C32.155 79.8769 32.3112 79.955 32.4792 79.9903C32.5988 80.0032 32.7195 80.0032 32.8392 79.9903H32.9458H33.1191L62.4489 59.9928C62.685 59.866 62.8775 59.671 63.0012 59.4332C63.1249 59.1954 63.174 58.9258 63.1421 58.6596V26.9702C63.1593 26.8687 63.1593 26.765 63.1421 26.6635C63.15 26.6329 63.15 26.6008 63.1421 26.5702C63.1146 26.4911 63.0789 26.4151 63.0354 26.3436C63.0395 26.3081 63.0395 26.2724 63.0354 26.2369L62.9021 26.0769L62.7955 25.9836L62.7155 25.9036L45.011 13.7718L46.7308 11.1054L49.0638 12.212C49.5462 12.4452 50.0745 12.5681 50.6103 12.5719C51.8051 12.4601 52.9081 11.883 53.6813 10.9651C54.4545 10.0473 54.8358 8.86235 54.7431 7.66587C54.7448 7.33091 54.718 6.99642 54.6631 6.66599C54.4979 5.48869 53.8871 4.41972 52.9567 3.67969C52.7543 3.51896 52.5353 3.38041 52.3034 3.26641C51.9975 3.11531 51.6755 2.99904 51.3436 2.91978L44.1044 0.0934638C43.9527 0.0293749 43.7892 -0.00240699 43.6245 0.000142051C42.6212 0.0413596 41.6567 0.398831 40.8689 1.02142C40.0811 1.644 39.5104 2.4998 39.2384 3.46638L36.4787 7.85251L33.5324 5.86609C33.3133 5.71992 33.0559 5.64192 32.7925 5.64192C32.5291 5.64192 32.2717 5.71992 32.0526 5.86609L1.09638 25.8636L0.976397 25.957L0.869743 26.0369L0.736426 26.2103C0.709495 26.2426 0.687072 26.2785 0.669767 26.3169C0.621003 26.3855 0.584884 26.4623 0.563114 26.5436C0.54249 26.5572 0.524796 26.5749 0.511063 26.5955C0.49733 26.6161 0.487833 26.6392 0.483124 26.6635C0.463959 26.7738 0.463959 26.8866 0.483124 26.9968V58.6596C0.48426 58.8792 0.539617 59.0951 0.644277 59.2881C0.748937 59.4812 0.899658 59.6454 1.08305 59.7661ZM13.9348 36.889L17.8143 39.5553V50.9672L13.8148 48.5808L13.9348 36.889ZM3.14946 29.5032L11.2818 35.0758L11.1485 49.3274C11.1462 49.561 11.2053 49.7912 11.32 49.9947C11.4346 50.1983 11.6008 50.3681 11.8017 50.4873L18.4676 54.4868C18.6747 54.6042 18.9095 54.6641 19.1475 54.6601C19.3765 54.6594 19.6015 54.5997 19.8008 54.4868C20.0067 54.371 20.1782 54.2026 20.2976 53.9988C20.4171 53.7951 20.4803 53.5632 20.4807 53.3269V41.3284L31.146 48.6475V76.1908L3.14946 57.9264V29.5032ZM33.8124 76.1641V48.6742L45.4243 40.3552L60.4758 29.5565V57.9397L33.8124 76.1641ZM59.4892 26.9835L32.4792 46.3678L21.3072 38.6621L35.9721 27.6767C36.1019 27.5849 36.2109 27.4668 36.2921 27.3301L43.5712 15.9982L59.4892 26.9835ZM50.6236 9.90559C49.9304 9.90559 49.1572 8.94571 49.1572 7.66587C49.1572 6.38603 49.8237 5.5328 50.6236 5.5328H50.8636C50.9559 5.56464 51.0452 5.6048 51.1302 5.65278C51.2138 5.69379 51.2903 5.74779 51.3569 5.81276C51.4135 5.86271 51.4669 5.91614 51.5169 5.97274C51.6328 6.1113 51.7313 6.26352 51.8102 6.42602V6.50601C51.8794 6.66485 51.933 6.83005 51.9701 6.99928C52.0142 7.20975 52.0365 7.42418 52.0368 7.6392C52.0768 8.94571 51.3036 9.90559 50.6236 9.90559ZM41.5981 4.71956C41.6987 4.5793 41.7712 4.42083 41.8114 4.25295C41.9073 3.86521 42.1088 3.51165 42.3936 3.23158C42.6784 2.9515 43.0352 2.75589 43.4245 2.66648L47.6373 4.30628C47.1771 4.87092 46.8491 5.53144 46.6775 6.23938L34.159 25.7437L18.9875 37.1156L14.868 34.3026L29.2663 23.7439C29.3975 23.6443 29.5103 23.5224 29.5996 23.3839L41.5981 4.71956ZM32.7592 8.55909L34.9722 10.0922L27.4931 21.7308L12.4817 32.7028L4.216 26.9968L32.7592 8.55909Z" fill="#005496"/>
<path d="M47.7574 44.1414C47.5455 44.0402 47.3106 43.9967 47.0765 44.0155C46.8423 44.0342 46.6173 44.1144 46.4242 44.2481L37.092 50.9139C36.9098 51.0306 36.7588 51.19 36.652 51.3781C36.5451 51.5662 36.4857 51.7775 36.4788 51.9938V61.326C36.4783 61.5708 36.5452 61.811 36.6721 62.0203C36.7991 62.2296 36.9813 62.3999 37.1987 62.5125C37.3896 62.6065 37.5991 62.6566 37.8119 62.6591C38.0907 62.6631 38.3628 62.5739 38.5852 62.4058L47.9174 55.74C48.0897 55.6173 48.2303 55.4554 48.3277 55.2676C48.425 55.0799 48.4763 54.8716 48.4773 54.6601V45.3279C48.4778 45.0831 48.4109 44.8429 48.2839 44.6336C48.1569 44.4243 47.9747 44.254 47.7574 44.1414ZM45.811 53.9802L39.1451 58.7396V52.6737L45.811 47.9143V53.9802Z" fill="#005496"/>
<path d="M20.9387 58.6654L19.4722 60.8784L27.4502 66.1651L28.9167 63.9521L20.9387 58.6654Z" fill="#005496"/>
<path d="M20.9252 63.9718L19.4587 66.1848L27.4368 71.4715L28.9033 69.2584L20.9252 63.9718Z" fill="#005496"/>
</svg>
