<svg width="84" height="84" viewBox="0 0 84 84" fill="none" xmlns="http://www.w3.org/2000/svg">
<g clip-path="url(#clip0_505_7)">
<path d="M49.4937 32.0691C48.5935 32.0691 47.8633 32.7992 47.8633 33.6994V33.7227C47.8633 34.6229 48.5934 35.353 49.4937 35.353C50.3939 35.353 51.124 34.6229 51.124 33.7227V33.6994C51.124 32.799 50.3941 32.0691 49.4937 32.0691Z" fill="#005496"/>
<path d="M58.8953 39.2531V25.8712C58.8953 25.3542 58.65 24.8678 58.2343 24.5603C57.8187 24.253 57.2818 24.1607 56.7874 24.3124L20.2237 35.5098H10.8924C4.88644 35.5098 0 40.396 0 46.4021C0 52.0849 4.37522 56.7623 9.93366 57.2498L13.5222 74.4545C14.112 77.2826 16.6371 79.3354 19.5261 79.3354C21.3806 79.3354 23.1153 78.51 24.285 77.071C25.4548 75.6318 25.9086 73.7654 25.5298 71.9498L24.7434 68.1803C28.1825 67.1188 30.788 64.2631 31.5461 60.7619L56.7871 68.4917C56.9436 68.5396 57.1044 68.563 57.2644 68.563C57.6094 68.563 57.95 68.4534 58.234 68.2434C58.6497 67.936 58.895 67.4495 58.895 66.9326V53.5506C62.1567 52.8071 64.5988 49.8853 64.5988 46.4018C64.5988 42.9186 62.1567 39.9968 58.8953 39.2531ZM10.8924 54.0333C6.68423 54.0333 3.26074 50.6098 3.26074 46.4019C3.26074 42.1937 6.6844 38.7704 10.8924 38.7704H18.8372V54.0335H11.2683H10.8924V54.0333ZM21.7552 75.0141C21.2074 75.6881 20.3948 76.0746 19.5262 76.0746C18.1732 76.0746 16.9906 75.1134 16.7144 73.7887L13.2738 57.2941H19.1423L21.2254 67.281C21.2257 67.2822 21.2259 67.2835 21.2262 67.2846L22.3381 72.6155C22.5154 73.4659 22.303 74.3402 21.7552 75.0141ZM24.0737 64.9674L22.6267 58.03L28.4132 59.8021C28.0002 62.1797 26.3292 64.1555 24.0737 64.9674ZM55.6346 64.7282L51.1242 63.347V40.2371C51.1242 39.3369 50.3941 38.6067 49.4939 38.6067C48.5937 38.6067 47.8636 39.3368 47.8636 40.2371V62.3485L30.871 57.1446C30.7128 57.0655 30.5402 57.0114 30.358 56.9874L22.0982 54.4579V38.346L55.6347 28.0757V64.7282H55.6346ZM58.8952 50.1334V42.6705C60.3317 43.3005 61.3379 44.7356 61.3379 46.4019C61.3379 48.0683 60.3317 49.5034 58.8952 50.1334Z" fill="#005496"/>
<path d="M76.582 44.7717H69.3104C68.4102 44.7717 67.6799 45.5017 67.6799 46.4021C67.6799 47.3023 68.41 48.0324 69.3104 48.0324H76.582C77.4822 48.0324 78.2123 47.3023 78.2123 46.4021C78.2123 45.5017 77.4822 44.7717 76.582 44.7717Z" fill="#005496"/>
<path d="M71.9318 32.1945C71.4012 31.4668 70.3809 31.3075 69.6538 31.8381L65.9947 34.5069C65.2672 35.0375 65.1076 36.0575 65.6382 36.7849C65.9573 37.2226 66.4536 37.4546 66.9566 37.4546C67.2898 37.4546 67.6261 37.3527 67.916 37.1413L71.5751 34.4725C72.3027 33.9419 72.4624 32.9219 71.9318 32.1945Z" fill="#005496"/>
<path d="M71.5755 58.3318L67.9387 55.6792C67.2114 55.1488 66.1913 55.3081 65.6607 56.0357C65.13 56.7632 65.2898 57.7831 66.0172 58.3137L69.654 60.9661C69.9439 61.1776 70.2801 61.2795 70.6134 61.2795C71.1165 61.2795 71.6129 61.0472 71.9318 60.6098C72.4627 59.8822 72.303 58.8622 71.5755 58.3318Z" fill="#005496"/>
<path d="M74.2812 10.534H40.4403C39.5401 10.534 38.8101 11.264 38.8101 12.1642C38.8101 13.0645 39.5401 13.7945 40.4403 13.7945H74.2812C75.1814 13.7945 75.9116 13.0645 75.9116 12.1642C75.9116 11.264 75.1815 10.534 74.2812 10.534Z" fill="#005496"/>
<path d="M23.9094 11.0117C23.606 10.7085 23.1857 10.534 22.7567 10.534C22.3278 10.534 21.9073 10.7082 21.6041 11.0117C21.2993 11.3149 21.1262 11.7355 21.1262 12.1644C21.1262 12.5933 21.2991 13.0138 21.6041 13.3169C21.9072 13.6201 22.3278 13.7949 22.7567 13.7949C23.1857 13.7949 23.606 13.6205 23.9094 13.3169C24.2126 13.0139 24.3871 12.5933 24.3871 12.1644C24.3871 11.7355 24.2127 11.3149 23.9094 11.0117Z" fill="#005496"/>
<path d="M17.9179 11.0117C17.6146 10.7085 17.1942 10.534 16.7652 10.534C16.3364 10.534 15.9159 10.7082 15.6127 11.0117C15.3095 11.3149 15.1348 11.7355 15.1348 12.1644C15.1348 12.5933 15.3092 13.0138 15.6127 13.3169C15.9157 13.6201 16.3364 13.7949 16.7652 13.7949C17.1942 13.7949 17.6146 13.6205 17.9179 13.3169C18.2211 13.0139 18.3957 12.5933 18.3957 12.1644C18.3957 11.7355 18.2213 11.3149 17.9179 11.0117Z" fill="#005496"/>
<path d="M29.9011 11.0117C29.5963 10.7083 29.1774 10.534 28.7484 10.534C28.318 10.534 27.899 10.7082 27.5942 11.0117C27.291 11.3149 27.1179 11.7355 27.1179 12.1644C27.1179 12.5933 27.2908 13.0138 27.5942 13.3169C27.8989 13.6201 28.3179 13.7949 28.7484 13.7949C29.1774 13.7949 29.5961 13.6205 29.9011 13.3169C30.2043 13.0139 30.3788 12.5933 30.3788 12.1644C30.3788 11.7355 30.2044 11.3149 29.9011 11.0117Z" fill="#005496"/>
<path d="M77.1526 4.66461H13.8944C10.1186 4.66461 7.04688 7.73635 7.04688 11.5121V33.8481C7.04688 34.7483 7.77695 35.4783 8.67716 35.4783C9.57738 35.4783 10.3075 34.7483 10.3075 33.8481V27.5015H20.4675C21.3677 27.5015 22.098 26.7714 22.098 25.8712C22.098 24.971 21.3679 24.2407 20.4675 24.2407H10.3076V19.6629C10.3137 19.6629 10.3196 19.6639 10.3253 19.6639H80.7393V62.0533C80.7393 64.0311 79.1304 65.6401 77.1526 65.6401H64.1639C63.2637 65.6401 62.5335 66.3702 62.5335 67.2705C62.5335 68.1709 63.2636 68.9008 64.1639 68.9008H77.1526C80.9283 68.9008 84.0001 65.8291 84.0001 62.0533V11.5121C84.0001 7.73635 80.9283 4.66461 77.1526 4.66461ZM80.7393 16.4033H10.3253C10.3193 16.4033 10.3134 16.4041 10.3076 16.4043V11.5121C10.3076 9.53431 11.9166 7.92535 13.8944 7.92535H77.1526C79.1304 7.92535 80.7393 9.53431 80.7393 11.5121V16.4033V16.4033Z" fill="#005496"/>
<path d="M26.908 24.7181C26.605 24.415 26.1843 24.2402 25.7555 24.2402C25.3266 24.2402 24.9061 24.4146 24.6027 24.7181C24.2996 25.0212 24.125 25.4418 24.125 25.8707C24.125 26.2997 24.2992 26.7202 24.6027 27.0234C24.9059 27.3282 25.3266 27.5011 25.7555 27.5011C26.1843 27.5011 26.6048 27.3286 26.908 27.0234C27.2112 26.7204 27.3859 26.2997 27.3859 25.8707C27.3859 25.4418 27.2113 25.0212 26.908 24.7181Z" fill="#005496"/>
</g>
<defs>
<clipPath id="clip0_505_7">
<rect width="84" height="84" fill="white"/>
</clipPath>
</defs>
</svg>
