<svg width="85" height="70" viewBox="0 0 85 70" fill="none" xmlns="http://www.w3.org/2000/svg">
<path d="M81.5286 46.3939V39.2461L82.8468 25.9227L84.8707 5.47001L81.3983 5.12564C79.7121 4.95643 78.0774 5.45647 76.7753 6.52593C75.4714 7.59455 74.6626 9.10652 74.4967 10.7843L73.1954 23.9369C73.0296 25.6138 73.5271 27.2561 74.5949 28.5591C75.6643 29.8629 77.1763 30.6718 78.8533 30.8376L78.959 30.8478L78.3279 37.2282H67.0401L65.067 20.1125H56.183V18.7106C56.183 12.7481 52.4086 7.5954 46.9369 5.70776C47.0181 5.36424 47.0604 5.01058 47.0604 4.65352C47.0604 2.08732 44.9722 0 42.4069 0C39.8407 0 37.7534 2.08732 37.7534 4.65352C37.7534 5.01058 37.7957 5.36424 37.8769 5.7086C32.4052 7.5954 28.6308 12.749 28.6308 18.7114V20.1134H19.7459L17.7728 37.2282H6.65174L6.02055 30.8486L6.12547 30.8385C7.80328 30.6726 9.31525 29.8638 10.3839 28.5599C11.4525 27.2561 11.95 25.6147 11.7842 23.9377L10.4829 10.7852C10.317 9.10737 9.50816 7.5954 8.20433 6.52678C6.90049 5.45816 5.26076 4.95981 3.58126 5.12649L0.108887 5.47085L2.65225 31.182L3.45012 39.247V46.3948H3.47381L1.16058 69.6649L4.52804 70L6.87426 46.3939H16.716L15.3251 58.4601L16.2744 59.0177C16.5181 59.1615 20.4795 61.4375 28.0224 62.963V69.8029H31.4068V63.5519C34.583 64.019 38.25 64.3278 42.406 64.3278C46.6331 64.3278 50.3568 64.0096 53.5703 63.5282V69.8029H56.9546V62.93C58.5428 62.6043 59.9634 62.2464 61.2283 61.8826L61.6082 61.8546L61.6022 61.7743C66.0205 60.467 68.3515 59.126 68.5368 59.0168L69.4862 58.4593L68.0952 46.3931H78.1036L80.4507 69.9992L83.8182 69.6641L81.5049 46.3939H81.5286ZM3.91462 8.49395C4.69388 8.41949 5.45367 8.64709 6.05778 9.14291C6.66189 9.63872 7.03756 10.3401 7.11455 11.1177L8.41585 24.2702C8.49284 25.0478 8.26186 25.8093 7.76689 26.4134C7.27108 27.0175 6.56967 27.3932 5.79211 27.4702L5.68635 27.4803L3.80971 8.5041L3.91462 8.49395ZM79.1866 27.4702C78.4082 27.3932 77.7068 27.0175 77.2118 26.4134C76.716 25.8093 76.4859 25.0478 76.562 24.2702L77.8633 11.1177C77.9403 10.3401 78.3152 9.63872 78.9201 9.14291C79.5242 8.64709 80.284 8.4178 81.0633 8.49395L81.1682 8.5041L79.4785 25.5893L79.2915 27.4803L79.1866 27.4702ZM42.4069 3.38438C43.1066 3.38438 43.676 3.9538 43.676 4.65352C43.676 5.12311 43.4213 5.43193 43.2699 5.57408L42.4069 6.38294L41.5456 5.57492C41.3933 5.43193 41.1377 5.12311 41.1377 4.65352C41.1377 3.9538 41.7072 3.38438 42.4069 3.38438ZM32.0151 18.7106C32.0151 13.6264 35.6542 9.32312 40.669 8.47787L42.4069 8.18513L44.1456 8.47787C49.1596 9.32312 52.7995 13.6264 52.7995 18.7106V20.1125H32.0151V18.7106ZM6.8345 43.0096V40.6126H17.3828L17.1061 43.0096H6.8345ZM61.3501 58.2917L60.2324 42.9097L56.8565 43.1542L58.0233 59.2098C54.0872 60.1523 48.8634 60.9442 42.4069 60.9442C36.2109 60.9442 31.1606 60.2141 27.2838 59.3223L28.4252 43.1509L25.0492 42.9131L23.9535 58.444C21.5896 57.7325 19.9084 57.0302 18.9489 56.5826L22.7631 23.4969H62.0515L65.8649 56.5826C64.9731 56.9981 63.4526 57.6343 61.3501 58.2917ZM67.4301 40.6126H78.1442V43.0096H67.7068L67.4301 40.6126Z" fill="#005496"/>
<path d="M59.2331 26.7578H25.2227V30.1422H59.2331V26.7578Z" fill="#005496"/>
</svg>
