<svg width="89" height="80" viewBox="0 0 89 80" fill="none" xmlns="http://www.w3.org/2000/svg">
<path fill-rule="evenodd" clip-rule="evenodd" d="M30.5308 45.2357L14.4631 22.7321L3.84134 20.9599L0 15.5786L21.8165 0L25.6597 5.3813L23.8875 16.003L39.9553 38.5067L49.2502 31.8709C49.2502 31.8709 63.6753 52.0751 63.6581 52.0504C66.74 56.2324 66.3897 61.0465 63.976 65.3371C73.8858 66.1518 83.2151 70.3319 88.3527 77.6587L85.1053 79.9353C80.0571 72.7361 70.3224 69.186 60.5021 69.1574C56.9919 69.146 53.459 69.5877 50.1144 70.4899C53.2096 72.3858 55.8765 74.7786 57.8961 77.6587L54.6487 79.9353C52.313 76.6041 48.9723 74.0534 45.0853 72.2716C41.0879 74.0591 37.5797 76.6269 35.0061 80L31.8538 77.5939C34.0505 74.7158 36.843 72.3344 40.0162 70.4557C36.8297 69.5972 33.4414 69.167 30.0454 69.1574C20.1851 69.1289 10.1535 72.6581 4.54946 80L1.3972 77.5939C12.491 63.3669 30.5175 65.1943 30.7498 65.1981L21.2359 51.8733L30.5308 45.2357ZM42.2605 41.7351L48.8962 51.0301L39.4718 57.7591L32.836 48.4641L26.7676 52.7965L35.9102 65.6016C39.1063 66.0433 42.2091 66.8428 45.0929 67.9906C49.5339 66.2527 54.4203 65.3218 59.3181 65.2038C61.8954 61.8517 63.0014 57.8447 60.4564 54.3917L48.327 37.4026L42.2605 41.7351ZM21.4776 6.3483L20.8951 5.53359L5.53168 16.5018L6.11416 17.3184L16.7359 19.0906L40.395 52.2274L43.3645 50.1068L19.7054 16.97L21.4776 6.3483ZM6.7804 34.7339C3.58436 34.7339 0.989841 37.3284 0.989841 40.5244C0.989841 43.7205 3.58436 46.315 6.7804 46.315C9.97644 46.315 12.571 43.7205 12.571 40.5244C12.571 37.3284 9.97644 34.7339 6.7804 34.7339ZM75.3078 34.7339C72.1117 34.7339 69.5172 37.3284 69.5172 40.5244C69.5172 43.7205 72.1117 46.315 75.3078 46.315C78.5038 46.315 81.0983 43.7205 81.0983 40.5244C81.0983 37.3284 78.5038 34.7339 75.3078 34.7339ZM6.7804 38.7008C7.78738 38.7008 8.60399 39.5175 8.60399 40.5244C8.60399 41.5314 7.78738 42.348 6.7804 42.348C5.77343 42.348 4.95681 41.5314 4.95681 40.5244C4.95681 39.5175 5.77343 38.7008 6.7804 38.7008ZM75.3078 38.7008C76.3148 38.7008 77.1314 39.5175 77.1314 40.5244C77.1314 41.5314 76.3148 42.348 75.3078 42.348C74.3008 42.348 73.4842 41.5314 73.4842 40.5244C73.4842 39.5175 74.3008 38.7008 75.3078 38.7008ZM52.4653 11.8914C49.2693 11.8914 46.6748 14.4859 46.6748 17.682C46.6748 20.878 49.2693 23.4725 52.4653 23.4725C55.6614 23.4725 58.2559 20.878 58.2559 17.682C58.2559 14.4859 55.6614 11.8914 52.4653 11.8914ZM52.4653 15.8584C53.4723 15.8584 54.2889 16.675 54.2889 17.682C54.2889 18.6889 53.4723 19.5056 52.4653 19.5056C51.4584 19.5056 50.6417 18.6889 50.6417 17.682C50.6417 16.675 51.4584 15.8584 52.4653 15.8584ZM79.1149 4.27725C75.9188 4.27725 73.3243 6.87177 73.3243 10.0678C73.3243 13.2639 75.9188 15.8584 79.1149 15.8584C82.3109 15.8584 84.9054 13.2639 84.9054 10.0678C84.9054 6.87177 82.3109 4.27725 79.1149 4.27725ZM79.1149 8.24422C80.1218 8.24422 80.9384 9.06084 80.9384 10.0678C80.9384 11.0748 80.1218 11.8914 79.1149 11.8914C78.1079 11.8914 77.2913 11.0748 77.2913 10.0678C77.2913 9.06084 78.1079 8.24422 79.1149 8.24422Z" fill="#005496"/>
</svg>
