<svg width="83" height="80" viewBox="0 0 83 80" fill="none" xmlns="http://www.w3.org/2000/svg">
<path d="M20.6897 74.4826C21.7868 74.4814 22.8385 74.045 23.6143 73.2693C24.39 72.4935 24.8264 71.4417 24.8276 70.3447V53.793C24.8276 52.6955 24.3917 51.643 23.6156 50.867C22.8396 50.091 21.7871 49.655 20.6897 49.655C19.5922 49.655 18.5397 50.091 17.7637 50.867C16.9877 51.643 16.5518 52.6955 16.5518 53.793V70.3447C16.553 71.4417 16.9893 72.4935 17.7651 73.2693C18.5408 74.045 19.5926 74.4814 20.6897 74.4826ZM19.3104 53.793C19.3104 53.4271 19.4557 53.0763 19.7144 52.8176C19.973 52.559 20.3239 52.4136 20.6897 52.4136C21.0555 52.4136 21.4063 52.559 21.665 52.8176C21.9237 53.0763 22.069 53.4271 22.069 53.793V70.3447C22.069 70.7105 21.9237 71.0613 21.665 71.32C21.4063 71.5787 21.0555 71.724 20.6897 71.724C20.3239 71.724 19.973 71.5787 19.7144 71.32C19.4557 71.0613 19.3104 70.7105 19.3104 70.3447V53.793Z" fill="#005496"/>
<path d="M34.4827 74.4826C35.5797 74.4814 36.6315 74.045 37.4072 73.2693C38.183 72.4935 38.6193 71.4417 38.6206 70.3447V53.793C38.6206 52.6955 38.1846 51.643 37.4086 50.867C36.6326 50.091 35.5801 49.655 34.4827 49.655C33.3852 49.655 32.3327 50.091 31.5567 50.867C30.7807 51.643 30.3447 52.6955 30.3447 53.793V70.3447C30.346 71.4417 30.7823 72.4935 31.5581 73.2693C32.3338 74.045 33.3856 74.4814 34.4827 74.4826ZM33.1033 53.793C33.1033 53.4271 33.2487 53.0763 33.5073 52.8176C33.766 52.559 34.1168 52.4136 34.4827 52.4136C34.8485 52.4136 35.1993 52.559 35.458 52.8176C35.7166 53.0763 35.862 53.4271 35.862 53.793V70.3447C35.862 70.7105 35.7166 71.0613 35.458 71.32C35.1993 71.5787 34.8485 71.724 34.4827 71.724C34.1168 71.724 33.766 71.5787 33.5073 71.32C33.2487 71.0613 33.1033 70.7105 33.1033 70.3447V53.793Z" fill="#005496"/>
<path d="M48.2756 74.4826C49.3727 74.4814 50.4245 74.045 51.2002 73.2693C51.976 72.4935 52.4123 71.4417 52.4135 70.3447V53.793C52.4135 52.6955 51.9776 51.643 51.2016 50.867C50.4256 50.091 49.3731 49.655 48.2756 49.655C47.1782 49.655 46.1257 50.091 45.3497 50.867C44.5737 51.643 44.1377 52.6955 44.1377 53.793V70.3447C44.1389 71.4417 44.5753 72.4935 45.351 73.2693C46.1268 74.045 47.1786 74.4814 48.2756 74.4826ZM46.8963 53.793C46.8963 53.4271 47.0416 53.0763 47.3003 52.8176C47.559 52.559 47.9098 52.4136 48.2756 52.4136C48.6414 52.4136 48.9923 52.559 49.2509 52.8176C49.5096 53.0763 49.6549 53.4271 49.6549 53.793V70.3447C49.6549 70.7105 49.5096 71.0613 49.2509 71.32C48.9923 71.5787 48.6414 71.724 48.2756 71.724C47.9098 71.724 47.559 71.5787 47.3003 71.32C47.0416 71.0613 46.8963 70.7105 46.8963 70.3447V53.793Z" fill="#005496"/>
<path d="M62.0688 74.4826C63.1659 74.4814 64.2177 74.045 64.9934 73.2693C65.7692 72.4935 66.2055 71.4417 66.2068 70.3447V53.793C66.2068 52.6955 65.7708 51.643 64.9948 50.867C64.2188 50.091 63.1663 49.655 62.0688 49.655C60.9714 49.655 59.9189 50.091 59.1429 50.867C58.3669 51.643 57.9309 52.6955 57.9309 53.793V70.3447C57.9321 71.4417 58.3685 72.4935 59.1442 73.2693C59.92 74.045 60.9718 74.4814 62.0688 74.4826ZM60.6895 53.793C60.6895 53.4271 60.8348 53.0763 61.0935 52.8176C61.3522 52.559 61.703 52.4136 62.0688 52.4136C62.4346 52.4136 62.7855 52.559 63.0442 52.8176C63.3028 53.0763 63.4481 53.4271 63.4481 53.793V70.3447C63.4481 70.7105 63.3028 71.0613 63.0442 71.32C62.7855 71.5787 62.4346 71.724 62.0688 71.724C61.703 71.724 61.3522 71.5787 61.0935 71.32C60.8348 71.0613 60.6895 70.7105 60.6895 70.3447V53.793Z" fill="#005496"/>
<path d="M77.2413 33.1034C77.2424 29.2894 75.7582 25.6248 73.1034 22.8864V17.931C73.1034 17.5652 72.958 17.2144 72.6994 16.9557C72.4407 16.697 72.0899 16.5517 71.7241 16.5517H70.916L72.6992 14.7684C73.6895 13.7781 74.2459 12.435 74.2459 11.0345C74.2459 9.63404 73.6896 8.2909 72.6993 7.3006C71.709 6.31029 70.3659 5.75393 68.9654 5.75391C67.5649 5.7539 66.2218 6.31023 65.2315 7.30051L55.9803 16.5517H53.793V12.4138C53.793 12.1153 53.6962 11.8249 53.5172 11.5862L49.6551 6.43672V1.37931C49.6551 1.01349 49.5098 0.662661 49.2511 0.40399C48.9925 0.14532 48.6416 0 48.2758 0H30.3448C29.979 0 29.6281 0.14532 29.3695 0.40399C29.1108 0.662661 28.9655 1.01349 28.9655 1.37931V6.43672L25.1034 11.5862L25.1046 11.5872C24.9248 11.8252 24.8275 12.1154 24.8276 12.4138V17.357C23.9928 16.8558 23.0423 16.5796 22.0689 16.5555V11.0345C22.0689 10.6687 21.9236 10.3178 21.665 10.0592C21.4063 9.80048 21.0554 9.65516 20.6896 9.65516H12.4138C12.048 9.65516 11.6971 9.80048 11.4385 10.0592C11.1798 10.3178 11.0345 10.6687 11.0345 11.0345V16.5555C9.55875 16.5959 8.15691 17.21 7.12672 18.2674C6.09653 19.3248 5.51915 20.7422 5.51724 22.2184V33.1034C4.05397 33.1034 2.65064 33.6847 1.61596 34.7194C0.581279 35.7541 0 37.1574 0 38.6207C0 40.0839 0.581279 41.4872 1.61596 42.5219C2.65064 43.5566 4.05397 44.1379 5.51724 44.1379H5.7131L10.1991 73.2975C10.478 75.1674 11.4212 76.8741 12.8561 78.1051C14.291 79.336 16.1214 80.0087 18.0119 79.9999H64.7467C66.6372 80.0087 68.4676 79.336 69.9025 78.105C71.3373 76.874 72.2806 75.1672 72.5594 73.2973L77.0454 44.1379H77.2413C78.7046 44.1379 80.1079 43.5566 81.1426 42.5219C82.1772 41.4872 82.7585 40.0839 82.7585 38.6207C82.7585 37.1574 82.1772 35.7541 81.1426 34.7194C80.1079 33.6847 78.7046 33.1034 77.2413 33.1034ZM62.6403 24.8276H68.868C67.1773 27.2597 66.2522 30.1416 66.2113 33.1034H54.3644L62.6403 24.8276ZM71.783 25.5488C73.5285 27.6796 74.4824 30.349 74.4827 33.1034H68.9706C69.0161 30.3376 70.0088 27.671 71.783 25.5488ZM70.3447 19.3103V22.0689H65.3987L68.1573 19.3103H70.3447ZM67.182 9.2512C67.4155 9.01403 67.6937 8.82543 68.0004 8.69627C68.3072 8.56711 68.6365 8.49995 68.9693 8.49866C69.3022 8.49737 69.632 8.56197 69.9397 8.68874C70.2475 8.81551 70.5271 9.00195 70.7624 9.2373C70.9978 9.47264 71.1842 9.75225 71.311 10.06C71.4378 10.3677 71.5024 10.6975 71.5012 11.0304C71.4999 11.3632 71.4327 11.6925 71.3036 11.9993C71.1745 12.306 70.9859 12.5842 70.7487 12.8177L43.1625 40.4039C42.929 40.6411 42.6509 40.8297 42.3441 40.9589C42.0373 41.088 41.708 41.1552 41.3752 41.1565C41.0424 41.1577 40.7126 41.0932 40.4048 40.9664C40.0971 40.8396 39.8174 40.6532 39.5821 40.4178C39.3467 40.1825 39.1603 39.9029 39.0335 39.5951C38.9067 39.2874 38.8421 38.9576 38.8434 38.6247C38.8446 38.2919 38.9118 37.9626 39.0409 37.6558C39.1701 37.3491 39.3587 37.0709 39.5958 36.8374L67.182 9.2512ZM45.5172 8.27585L43.4482 11.0345H28.9655L31.0344 8.27585H45.5172ZM27.5862 13.7931H42.7586V29.7734L39.4287 33.1034H27.5862V13.7931ZM51.0344 21.4976V19.3103H53.2217L51.0344 21.4976ZM51.0344 16.5517H49.6551C49.2893 16.5517 48.9385 16.697 48.6798 16.9557C48.4211 17.2144 48.2758 17.5652 48.2758 17.931V23.4483C48.2756 23.6738 48.331 23.896 48.4372 24.095L45.5172 27.0148V12.8736L48.2758 9.19551L51.0344 12.8736V16.5517ZM46.8965 2.75862V5.51724H31.7241V2.75862H46.8965ZM19.3103 12.4138V16.5517H13.7931V12.4138H19.3103ZM8.27585 30.3448H22.0689V27.5862H8.27585V22.2184C8.27667 21.4474 8.58333 20.7082 9.12852 20.163C9.67372 19.6178 10.4129 19.3111 11.184 19.3103H21.9195C22.6905 19.3111 23.4297 19.6178 23.9749 20.163C24.5201 20.7082 24.8267 21.4474 24.8276 22.2184V33.1034H8.27585V30.3448ZM2.75862 38.6207C2.75948 37.8893 3.0504 37.1881 3.56756 36.671C4.08471 36.1538 4.78587 35.8629 5.51724 35.862H36.8755C36.3674 36.6925 36.0986 37.6471 36.0986 38.6207C36.0986 39.5942 36.3674 40.5488 36.8755 41.3793H5.51724C4.78587 41.3784 4.08471 41.0875 3.56756 40.5703C3.0504 40.0532 2.75948 39.352 2.75862 38.6207ZM69.8327 72.8779C69.6512 74.0952 69.0372 75.2063 68.1031 76.0077C67.169 76.8091 65.9774 77.247 64.7467 77.2413H18.0119C16.7811 77.2471 15.5895 76.8092 14.6554 76.0078C13.7213 75.2065 13.1072 74.0953 12.9257 72.878L8.5043 44.1379H74.2542L69.8327 72.8779ZM77.2413 41.3793H46.0886L51.6058 35.862H77.2413C77.9729 35.862 78.6746 36.1527 79.1919 36.67C79.7093 37.1874 79.9999 37.889 79.9999 38.6207C79.9999 39.3523 79.7093 40.0539 79.1919 40.5713C78.6746 41.0886 77.9729 41.3793 77.2413 41.3793Z" fill="#005496"/>
</svg>
