<svg width="20" height="20" viewBox="0 0 20 20" fill="none" xmlns="http://www.w3.org/2000/svg">
<path d="M10 20C15.5228 20 20 15.5228 20 10C20 4.47715 15.5228 0 10 0C4.47715 0 0 4.47715 0 10C0 15.5228 4.47715 20 10 20Z" fill="#32a9db"/>
<path d="M8.16659 14.5834C7.84259 14.5834 7.89767 14.4611 7.78592 14.1526L6.83325 11.0173L14.1666 6.66675" fill="#C8DAEA"/>
<path d="M8.16675 14.5834C8.41675 14.5834 8.52716 14.469 8.66675 14.3334L10.0001 13.0369L8.33691 12.0339" fill="#A9C9DD"/>
<path d="M8.33677 12.0341L12.3668 15.0115C12.8267 15.2652 13.1585 15.1338 13.2731 14.5846L14.9135 6.85431C15.0814 6.18098 14.6569 5.87548 14.2169 6.07523L4.58435 9.78948C3.92685 10.0532 3.93077 10.4201 4.46452 10.5835L6.93644 11.3551L12.6592 7.74464C12.9294 7.58081 13.1774 7.66881 12.9739 7.84948" fill="#ffffff"/>
</svg>
