<svg width="21" height="22" viewBox="0 0 21 22" fill="none" xmlns="http://www.w3.org/2000/svg">
<path d="M0 21.371L1.47433 15.9801C0.56476 14.4024 0.0864392 12.6124 0.0870131 10.7792C0.0893982 5.04313 4.7511 0.376465 10.4789 0.376465C13.2589 0.377722 15.868 1.46115 17.8298 3.42753C19.7919 5.39389 20.8719 8.00762 20.8707 10.7873C20.8683 16.5235 16.2064 21.1906 10.4793 21.1906C10.4789 21.1906 10.4796 21.1906 10.4793 21.1906H10.4747C8.73554 21.19 7.02668 20.7528 5.50894 19.9245L0 21.371Z" fill="#69CE39"/>
<path fill-rule="evenodd" clip-rule="evenodd" d="M8.16877 6.41814C7.98448 6.02052 7.79045 6.01256 7.61512 6.00561C7.47171 5.99964 7.30754 6 7.14362 6C6.97958 6 6.71301 6.05983 6.48758 6.29875C6.26202 6.53766 5.62634 7.11523 5.62634 8.2899C5.62634 9.46469 6.50808 10.5998 6.63098 10.7592C6.75402 10.9184 8.33308 13.4061 10.8339 14.3631C12.9122 15.1584 13.3352 15.0002 13.7863 14.9604C14.2374 14.9206 15.2419 14.383 15.447 13.8254C15.652 13.268 15.652 12.7902 15.5905 12.6903C15.529 12.5908 15.3649 12.5311 15.1189 12.4117C14.8728 12.2923 13.6632 11.7146 13.4377 11.635C13.2121 11.5554 13.0481 11.5156 12.884 11.7547C12.72 11.9935 12.2487 12.5311 12.1052 12.6903C11.9617 12.8499 11.8181 12.8698 11.5721 12.7504C11.326 12.6306 10.5336 12.3788 9.59353 11.5654C8.86212 10.9326 8.36831 10.151 8.22478 9.91202C8.08124 9.67323 8.20939 9.54389 8.33282 9.42486C8.44328 9.3179 8.57888 9.14614 8.70192 9.00672C8.82469 8.8673 8.8657 8.76781 8.94772 8.60861C9.02974 8.44917 8.98873 8.30976 8.92721 8.19037C8.8657 8.07097 8.38754 6.89024 8.16877 6.41814Z" fill="white"/>
</svg>
