<svg width="25" height="23" viewBox="0 0 25 23" fill="none" xmlns="http://www.w3.org/2000/svg">
<path d="M12.1071 19.4604C12.1071 20.6632 11.0782 21.6778 9.75887 21.6778C8.43956 21.6778 7.41064 20.6632 7.41064 19.4604C7.41064 18.2577 8.43956 17.243 9.75887 17.243C11.0782 17.243 12.1071 18.2577 12.1071 19.4604Z" stroke="white"/>
<path d="M21.2214 19.4604C21.2214 20.6632 20.1925 21.6778 18.8732 21.6778C17.5539 21.6778 16.525 20.6632 16.525 19.4604C16.525 18.2577 17.5539 17.243 18.8732 17.243C20.1925 17.243 21.2214 18.2577 21.2214 19.4604Z" stroke="white"/>
<path d="M1.21417 1.77274C1.21417 1.77274 2.68427 1.4269 3.41926 2.46444C4.15424 3.50197 5.47735 16.5949 5.62434 18.0277C5.77134 19.4604 6.91063 19.4604 6.91063 19.4604M24 4.88537C24 4.88537 23.376 8.3762 22.53 10.7648C21.7949 12.8399 20.4794 13.829 19.2223 14.2233C18.1198 14.5692 17.9655 14.581 14.4446 14.5692C10.7487 14.5568 5.25679 14.5692 5.25679 14.5692M13.3421 1.77267C13.3421 1.77267 13.3421 7.63072 13.3421 11.9527M13.3421 11.9527C15.2079 10.332 17.1643 8.59079 17.1643 8.59079M13.3421 11.9527C11.6198 10.332 9.18922 8.04732 9.18922 8.04732M12.6071 19.4604H14.4446H16.025" stroke="white" stroke-width="1.5" stroke-linecap="round"/>
</svg>
