<svg width="24" height="23" viewBox="0 0 24 23" fill="none" xmlns="http://www.w3.org/2000/svg">
<ellipse cx="18.601" cy="6.48775" rx="0.572966" ry="0.612754" fill="url(#paint0_linear_6_226)"/>
<ellipse cx="16.0249" cy="6.48775" rx="0.572966" ry="0.612754" fill="url(#paint1_linear_6_226)"/>
<path d="M1.08264 8.59205L1.57781 8.66137L1.08264 8.59205ZM14.1727 21.7687L14.0429 21.2859L14.1727 21.7687ZM12.7183 11.6383L12.8525 11.1567L12.7515 11.1285L12.6477 11.1433L12.7183 11.6383ZM9.16295 12.1451L8.78566 11.817L7.90515 12.8295L9.23351 12.6401L9.16295 12.1451ZM10.779 10.2869L11.1563 10.615L11.3967 10.3386L11.2056 10.0261L10.779 10.2869ZM9.56511 5.55684L9.06791 5.50399L9.56511 5.55684ZM13.7669 0.65783L13.8563 1.14977L13.7669 0.65783ZM5.29334 12.0549C5.30664 11.9714 5.38405 11.8254 5.61348 11.6076C5.83278 11.3994 6.11659 11.1928 6.42808 10.9649C6.72201 10.7498 7.05252 10.5076 7.29498 10.2573C7.51948 10.0255 7.80477 9.64969 7.71477 9.17933L6.73259 9.36725C6.72339 9.31921 6.76627 9.36576 6.57665 9.56156C6.40499 9.7388 6.14967 9.92948 5.83757 10.1579C5.54303 10.3734 5.20061 10.6207 4.92499 10.8824C4.6595 11.1344 4.3733 11.4741 4.30581 11.8975L5.29334 12.0549ZM7.71477 9.17933C7.67938 8.99436 7.58733 8.79581 7.48924 8.61672C7.38539 8.42712 7.2507 8.21682 7.09752 7.99873C6.79082 7.56204 6.39336 7.07051 5.97722 6.61375C5.56269 6.15876 5.11706 5.72445 4.71244 5.41008C4.51121 5.25374 4.30547 5.1155 4.10799 5.02082C3.92851 4.93476 3.67133 4.84265 3.40442 4.89845L3.60907 5.87729C3.54417 5.89086 3.5496 5.86209 3.67565 5.92253C3.78371 5.97434 3.92643 6.06575 4.09891 6.19976C4.44172 6.46609 4.84452 6.85532 5.23802 7.28723C5.62991 7.71737 6.00008 8.17608 6.27919 8.57348C6.41893 8.77244 6.5317 8.95016 6.61218 9.0971C6.69842 9.25455 6.72758 9.34107 6.73259 9.36725L7.71477 9.17933ZM3.40442 4.89845C2.84746 5.0149 2.21275 5.46896 1.70204 6.07263C1.17751 6.69265 0.725481 7.53687 0.587467 8.52273L1.57781 8.66137C1.68534 7.89324 2.04135 7.21984 2.46549 6.7185C2.90344 6.20082 3.358 5.92978 3.60907 5.87729L3.40442 4.89845ZM0.587467 8.52273C0.0746346 12.186 1.86673 16.0512 4.54472 18.7645C7.21667 21.4717 10.9079 23.1644 14.3026 22.2515L14.0429 21.2859C11.1349 22.0678 7.79629 20.6353 5.25645 18.062C2.72265 15.4948 1.12102 11.9243 1.57781 8.66137L0.587467 8.52273ZM14.3026 22.2515C15.2811 21.9884 15.855 21.1967 16.1748 20.4927C16.495 19.7879 16.612 19.0624 16.612 18.7334H15.612C15.612 18.9113 15.529 19.4964 15.2644 20.0791C14.9994 20.6625 14.6037 21.135 14.0429 21.2859L14.3026 22.2515ZM16.612 18.7334C16.612 18.6077 16.574 18.495 16.5474 18.4263C16.5166 18.3465 16.476 18.2636 16.432 18.1826C16.3435 18.0197 16.2224 17.8303 16.0833 17.6299C15.8037 17.2275 15.4288 16.7489 15.0356 16.2946C14.6438 15.8419 14.222 15.3997 13.848 15.0767C13.6626 14.9166 13.4736 14.7724 13.2952 14.6718C13.2058 14.6214 13.1049 14.5738 12.9978 14.5438C12.8942 14.5148 12.749 14.4921 12.5918 14.5332L12.8447 15.5007C12.7683 15.5207 12.7204 15.5046 12.728 15.5067C12.7321 15.5079 12.7565 15.5161 12.8042 15.5429C12.8997 15.5967 13.0314 15.6927 13.1944 15.8335C13.5173 16.1124 13.9036 16.5148 14.2795 16.949C14.6539 17.3816 15.0062 17.8321 15.2619 18.2004C15.3904 18.3854 15.4891 18.5418 15.5533 18.66C15.5857 18.7195 15.6047 18.7611 15.6145 18.7864C15.6285 18.8227 15.612 18.7959 15.612 18.7334H16.612ZM12.5918 14.5332C12.4273 14.5762 12.2818 14.662 12.1644 14.7458C12.0428 14.8325 11.9232 14.9375 11.8094 15.0464C11.5847 15.2615 11.3424 15.5318 11.1175 15.7771C10.884 16.0318 10.6639 16.2658 10.4577 16.4457C10.2385 16.6372 10.0985 16.7094 10.0303 16.7236L10.2349 17.7025C10.5706 17.6323 10.8751 17.4088 11.1154 17.1991C11.3688 16.9778 11.6234 16.705 11.8546 16.4529C12.0943 16.1915 12.3065 15.9549 12.5009 15.7688C12.5968 15.677 12.6778 15.6079 12.745 15.56C12.8163 15.5091 12.8476 15.4999 12.8447 15.5007L12.5918 14.5332ZM10.0303 16.7236C10.0978 16.7095 10.1257 16.7273 10.0788 16.7135C10.0414 16.7025 9.98064 16.6785 9.89414 16.6338C9.72182 16.5448 9.49675 16.4001 9.23143 16.2054C8.70362 15.8182 8.06421 15.2689 7.44891 14.6776C6.83324 14.0859 6.25536 13.4653 5.84566 12.9388C5.63986 12.6743 5.4865 12.4462 5.3915 12.266C5.34408 12.176 5.31716 12.1091 5.30391 12.0637C5.28936 12.0139 5.29931 12.0174 5.29334 12.0549L4.30581 11.8975C4.27964 12.0616 4.30726 12.2182 4.34401 12.3441C4.38205 12.4743 4.44004 12.6055 4.50687 12.7323C4.6404 12.9856 4.83298 13.2657 5.05644 13.5529C5.50527 14.1297 6.11923 14.7866 6.756 15.3986C7.39314 16.0109 8.06677 16.5913 8.6399 17.0117C8.92505 17.2209 9.19742 17.3995 9.43543 17.5224C9.55409 17.5836 9.6767 17.6376 9.79665 17.6729C9.90712 17.7054 10.0663 17.7377 10.2349 17.7025L10.0303 16.7236ZM12.6477 11.1433L9.09239 11.6501L9.23351 12.6401L12.7888 12.1333L12.6477 11.1433ZM9.54023 12.4732L11.1563 10.615L10.4017 9.95879L8.78566 11.817L9.54023 12.4732ZM10.779 10.2869C11.2056 10.0261 11.2056 10.0261 11.2057 10.0262C11.2057 10.0263 11.2057 10.0263 11.2058 10.0264C11.2058 10.0264 11.2058 10.0265 11.2058 10.0265C11.2058 10.0265 11.2057 10.0263 11.2056 10.026C11.2052 10.0255 11.2045 10.0243 11.2035 10.0226C11.2014 10.0192 11.1981 10.0136 11.1935 10.0058C11.1843 9.99017 11.1702 9.96596 11.152 9.93373C11.1156 9.86924 11.0628 9.77282 10.9996 9.6492C10.8731 9.40154 10.7062 9.04694 10.5469 8.62294C10.2247 7.76565 9.94982 6.66794 10.0623 5.60969L9.06791 5.50399C8.93182 6.7843 9.26389 8.05161 9.6108 8.97472C9.786 9.44091 9.96922 9.83035 10.1091 10.1042C10.1792 10.2413 10.2387 10.35 10.2813 10.4254C10.3026 10.4632 10.3197 10.4926 10.3318 10.5132C10.3379 10.5235 10.3427 10.5316 10.3461 10.5373C10.3479 10.5402 10.3493 10.5426 10.3503 10.5443C10.3509 10.5452 10.3513 10.5459 10.3517 10.5465C10.3518 10.5468 10.352 10.547 10.3521 10.5472C10.3522 10.5473 10.3523 10.5475 10.3523 10.5475C10.3524 10.5476 10.3524 10.5478 10.779 10.2869ZM10.0623 5.60969C10.1331 4.94332 10.4855 3.92011 11.1387 3.00932C11.7883 2.10358 12.6968 1.36055 13.8563 1.14977L13.6774 0.165893C12.1858 0.437065 11.0742 1.38335 10.3261 2.42654C9.58159 3.46467 9.15868 4.64999 9.06791 5.50399L10.0623 5.60969ZM19.2301 11.6839C18.3394 12.0566 17.3666 12.1038 16.2939 11.9634C15.2137 11.8221 14.0759 11.4977 12.8525 11.1567L12.584 12.12C13.7848 12.4547 14.9985 12.8025 16.1642 12.955C17.3375 13.1085 18.5051 13.0712 19.6161 12.6064L19.2301 11.6839ZM19.6161 12.6064C20.7383 12.1368 21.9893 10.9932 22.7841 9.56081C23.5851 8.11723 23.9634 6.30271 23.1974 4.51522L22.2783 4.90912C22.8877 6.33128 22.6095 7.81448 21.9097 9.0756C21.2037 10.3479 20.1095 11.3159 19.2301 11.6839L19.6161 12.6064ZM13.8563 1.14977C17.4176 0.502334 21.0212 1.97584 22.2783 4.90912L23.1974 4.51522C21.7035 1.02919 17.5499 -0.53811 13.6774 0.165893L13.8563 1.14977Z" fill="url(#paint2_linear_6_226)"/>
<ellipse cx="13.6353" cy="6.48775" rx="0.572966" ry="0.612754" fill="url(#paint3_linear_6_226)"/>
<defs>
<linearGradient id="paint0_linear_6_226" x1="18.0799" y1="6.48775" x2="19.2067" y2="6.48775" gradientUnits="userSpaceOnUse">
<stop stop-color="#00DAE7"/>
<stop offset="0.239583" stop-color="#00C8EC"/>
<stop offset="0.5" stop-color="#00B3EE"/>
<stop offset="0.739583" stop-color="#00A9F2"/>
<stop offset="1" stop-color="#009BE4"/>
</linearGradient>
<linearGradient id="paint1_linear_6_226" x1="15.5037" y1="6.48775" x2="16.6306" y2="6.48775" gradientUnits="userSpaceOnUse">
<stop stop-color="#00DAE7"/>
<stop offset="0.239583" stop-color="#00C8EC"/>
<stop offset="0.5" stop-color="#00B3EE"/>
<stop offset="0.739583" stop-color="#00A9F2"/>
<stop offset="1" stop-color="#009BE4"/>
</linearGradient>
<linearGradient id="paint2_linear_6_226" x1="2.00041" y1="11.25" x2="23.7462" y2="11.25" gradientUnits="userSpaceOnUse">
<stop stop-color="#00DAE7"/>
<stop offset="0.239583" stop-color="#00C8EC"/>
<stop offset="0.5" stop-color="#00B3EE"/>
<stop offset="0.739583" stop-color="#00A9F2"/>
<stop offset="1" stop-color="#009BE4"/>
</linearGradient>
<linearGradient id="paint3_linear_6_226" x1="13.1142" y1="6.48775" x2="14.2411" y2="6.48775" gradientUnits="userSpaceOnUse">
<stop stop-color="#00DAE7"/>
<stop offset="0.239583" stop-color="#00C8EC"/>
<stop offset="0.5" stop-color="#00B3EE"/>
<stop offset="0.739583" stop-color="#00A9F2"/>
<stop offset="1" stop-color="#009BE4"/>
</linearGradient>
</defs>
</svg>
