<svg width="149" height="150" viewBox="0 0 149 150" fill="none" xmlns="http://www.w3.org/2000/svg">
<path d="M55 3.17999C55 4.50999 58.23 8.69 62.03 12.68L69.06 19.9L61.08 28.07C56.71 32.44 53.1 37 53.1 37.95C53.1 38.9 56.71 43.46 61.08 47.83C67.35 54.29 68.49 56.57 66.78 58.28C64.88 60.18 61.27 57.33 49.3 45.55C37.33 33.58 33.72 30.92 31.82 32.82C29.92 34.72 32.58 38.33 44.55 50.3C56.33 62.27 59.18 65.88 57.28 67.78C55.57 69.49 53.29 68.35 46.83 62.08C42.46 57.71 37.9 54.1 36.95 54.1C36 54.1 31.44 57.71 27.07 62.08L18.9 70.06L10.35 61.7C3.12999 54.67 1.79999 53.91 0.659994 56.76C-0.290006 59.04 1.60999 62.27 6.73999 67.59L13.96 75L6.73999 82.41C1.60999 87.73 -0.290006 90.96 0.659994 93.24C1.79999 96.09 5.21999 93.43 19.47 79.18L37.14 61.7L43.6 68.35L50.06 75L43.6 81.65C37.52 87.92 36.95 88.11 33.72 85.07C31.06 82.6 29.73 82.41 28.02 84.12C26.31 85.83 27.07 87.73 31.25 92.1L36.76 97.8L45.88 88.87C53.1 81.84 55.38 80.32 57.28 82.22C59.18 84.12 56.33 87.73 44.55 99.7C32.58 111.67 29.92 115.28 31.82 117.18C33.72 119.08 37.33 116.42 49.3 104.45C61.27 92.67 64.88 89.82 66.78 91.72C68.49 93.43 67.35 95.71 61.08 102.17C56.71 106.54 53.1 111.1 53.1 112.24C53.1 113.38 55.19 116.23 57.85 118.7C61.46 122.12 63.17 122.69 64.88 120.98C66.59 119.27 66.4 117.94 63.93 115.28C60.89 112.05 61.08 111.48 67.35 105.4L74 98.94L80.65 105.4L87.3 111.86L70.2 129.15C56.71 142.64 53.48 146.82 55.38 148.72C57.28 150.62 59.37 149.29 65.83 143.02L74 135.04L82.17 143.02C88.63 149.29 90.91 150.43 92.62 148.72C94.33 147.01 93.19 144.73 86.92 138.27L78.94 130.1L87.87 120.98L96.8 112.05L87.87 102.93C80.65 95.9 79.32 93.62 81.22 91.72C83.12 89.82 86.73 92.48 98.7 104.45C110.67 116.42 114.28 119.08 116.18 117.18C118.08 115.28 115.42 111.67 103.45 99.7C91.48 87.73 88.82 84.12 90.72 82.22C92.62 80.32 94.9 81.65 101.93 88.87L111.05 97.8L119.98 88.87L129.1 79.94L137.27 87.92C143.73 94.19 146.01 95.33 147.72 93.62C149.43 91.91 148.29 89.63 142.02 83.17L134.04 75L142.02 66.83C148.29 60.37 149.62 58.28 147.72 56.38C145.82 54.48 141.64 57.71 128.15 71.2L110.86 88.3L104.4 81.65L97.94 75L104.4 68.35C110.48 62.08 111.05 61.89 114.28 64.93C116.94 67.4 118.27 67.59 119.98 65.88C121.69 64.17 121.12 62.46 117.7 58.85C115.23 56.19 112.38 54.1 111.24 54.1C110.1 54.1 105.54 57.71 101.17 62.08C94.71 68.35 92.43 69.49 90.72 67.78C88.82 65.88 91.67 62.27 103.45 50.3C115.42 38.33 118.08 34.72 116.18 32.82C114.28 30.92 110.67 33.58 98.7 45.55C86.73 57.33 83.12 60.18 81.22 58.28C79.32 56.38 80.84 54.1 87.87 46.88L96.8 37.76L91.1 32.25C86.73 28.07 84.83 27.31 83.12 29.02C81.41 30.73 81.6 32.06 84.07 34.72C87.11 37.95 86.92 38.52 80.65 44.6L74 51.06L67.35 44.6L60.7 38.14L78.18 20.47C92.43 6.22 95.09 2.8 92.24 1.66C89.96 0.709991 86.73 2.61 81.41 7.73999L74 14.96L66.78 7.92999C59.56 0.899994 55 -1 55 3.17999ZM81.6 68.35L88.06 75L81.03 82.22L74 89.25L66.97 82.22L59.94 75L66.4 68.35C70.01 64.74 73.43 61.7 74 61.7C74.57 61.7 77.99 64.74 81.6 68.35Z" fill="#F8FCFF"/>
</svg>
